<svg viewBox="0 0 48 48" fill="none" xmlns="http://www.w3.org/2000/svg">
<g clip-path="url(#clip0_481_766)">
<path d="M31.501 17.2039C31.501 21.3479 28.1416 28.1621 23.9976 28.1621C19.8535 28.1621 16.4941 21.3479 16.4941 17.2039C16.4941 13.0598 19.8535 9.70044 23.9976 9.70044C28.1416 9.70044 31.501 13.0598 31.501 17.2039Z" stroke="currentColor" stroke-width="3"/>
<path d="M23.998 8.90299V5.33789" stroke="currentColor" stroke-width="3" stroke-linecap="round"/>
<path d="M7.99902 22.4962V18.9312" stroke="currentColor" stroke-width="3" stroke-linecap="round"/>
<path d="M39.999 22.4962V18.9312" stroke="currentColor" stroke-width="3" stroke-linecap="round"/>
<path d="M16.7404 18.9313L4 18.9313" stroke="currentColor" stroke-width="3" stroke-linecap="round" stroke-linejoin="round"/>
<path d="M31.2596 18.9315L44 18.9315" stroke="currentColor" stroke-width="3" stroke-linecap="round" stroke-linejoin="round"/>
<path d="M21.041 16.6744L22.643 17.2518C23.5196 17.5678 24.479 17.5678 25.3556 17.2518L26.9576 16.6744" stroke="currentColor" stroke-width="3" stroke-linecap="round" stroke-linejoin="round"/>
<path d="M10 42.25L12 25.75" stroke="currentColor" stroke-width="3" stroke-linecap="round"/>
<path d="M38 42.25L36 25.75" stroke="currentColor" stroke-width="3" stroke-linecap="round"/>
<path d="M24 42.4375V32" stroke="currentColor" stroke-width="3" stroke-linecap="round" stroke-dasharray="6 6"/>
</g>
<defs>
<clipPath id="clip0_481_766">
<rect width="48" height="48" fill="white"/>
</clipPath>
</defs>
</svg>
