<svg width="12" height="12" viewBox="0 0 12 12" fill="none" xmlns="http://www.w3.org/2000/svg">
<path d="M1.44869 0.103516C2.23487 0.103516 2.89691 0.765552 2.89691 1.55173C2.89691 2.37928 2.19348 3.02064 1.44869 2.99995C0.683204 3.02064 0.000472332 2.37928 0.000472332 1.55173C-0.0202222 0.744858 0.641838 0.103516 1.44869 0.103516Z" fill="#1D1D1B"/>
<path d="M2.25541 11.8963H0.600296C0.372727 11.8963 0.186523 11.7101 0.186523 11.4825V4.24141C0.186523 4.01384 0.352033 3.82764 0.579602 3.82764H2.25539C2.48296 3.82764 2.66916 4.01384 2.66916 4.24141V11.5032C2.66918 11.7101 2.48298 11.8963 2.25541 11.8963Z" fill="#1D1D1B"/>
<path d="M11.979 6.35153C11.979 4.82056 10.8411 3.62061 9.31012 3.62061H8.87566C8.04811 3.62061 7.24124 4.01368 6.80677 4.65505C6.66196 4.79986 6.59987 4.86195 6.59987 4.86195V4.0344C6.59987 3.95165 6.47573 3.8275 6.39297 3.8275H4.32409C4.24133 3.8275 4.11719 3.91026 4.11719 4.01371V11.7306C4.11719 11.8134 4.24133 11.8962 4.32409 11.8962H6.59985C6.6826 11.8962 6.80675 11.8134 6.80675 11.7306V7.26183C6.80675 6.49634 7.38603 5.85498 8.15151 5.83431C8.54459 5.83431 8.89631 5.97912 9.16526 6.24808C9.41353 6.49634 9.51698 6.84806 9.51698 7.24114V11.6892C9.51698 11.772 9.64112 11.8961 9.72387 11.8961H11.7928C11.8755 11.8961 11.9997 11.772 11.9997 11.6892V6.35153H11.979Z" fill="#1D1D1B"/>
</svg>
