<svg viewBox="0 0 40 40" fill="none" xmlns="http://www.w3.org/2000/svg">
<g clip-path="url(#clip0_492_2701)">
<path d="M24.2411 9.55938C27.3745 11.3499 29.6554 12.6545 31.3044 13.7897C32.9597 14.9292 33.8187 15.7949 34.2558 16.643C35.3412 18.7494 35.3412 21.2506 34.2558 23.357C33.8187 24.2051 32.9597 25.0708 31.3044 26.2103C29.6554 27.3455 27.3745 28.65 24.2411 30.4406C21.149 32.2075 18.8981 33.4925 17.1057 34.3263C15.3073 35.1629 14.1374 35.4616 13.19 35.4113C10.8393 35.2866 8.69163 34.0403 7.4171 32.0612C6.90339 31.2635 6.58228 30.0996 6.41639 28.1231C6.25105 26.1532 6.25 23.5613 6.25 20C6.25 16.4387 6.25105 13.8468 6.41639 11.8769C6.58229 9.90041 6.90339 8.73647 7.4171 7.93879C8.69163 5.95972 10.8393 4.71338 13.19 4.58867C14.1374 4.53841 15.3073 4.83709 17.1057 5.67366C18.8981 6.50746 21.149 7.79249 24.2411 9.55938Z" stroke="currentColor" stroke-width="2.5"/>
</g>
<defs>
<clipPath id="clip0_492_2701">
<rect width="40" height="40" fill="white"/>
</clipPath>
</defs>
</svg>
