<svg viewBox="0 0 19 19" fill="none" xmlns="http://www.w3.org/2000/svg">
  <path
    d="M17.9837 14.2569V16.6141C17.9876 17.5152 17.1268 18.2676 16.1602 18.1856C7.81746 18.1917 1.34766 12.0459 1.35419 4.24667C1.26713 3.34177 2.06264 2.53461 3.01881 2.53377H5.5283C5.93426 2.53001 6.32782 2.66505 6.63563 2.9137C7.51073 3.62061 8.0736 6.02001 7.85703 6.97385C7.68795 7.71855 6.89034 8.23955 6.34807 8.74892C7.53887 10.716 9.27284 12.3448 11.3671 13.4633C11.9093 12.954 12.464 12.2047 13.2568 12.0459C14.2738 11.8422 16.8396 12.3727 17.5877 13.2021C17.853 13.4961 17.9939 13.8716 17.9837 14.2569Z"
    stroke="currentColor" stroke-width="1.10417" stroke-linecap="round" stroke-linejoin="round" />
</svg>