<svg viewBox="0 0 20 20" fill="none" xmlns="http://www.w3.org/2000/svg">
<path fill="currentColor" d="M10.2246 11.7009H8.97949C8.98275 11.408 9.00553 11.1557 9.04785 10.9441C9.09342 10.7292 9.16992 10.5356 9.27734 10.363C9.38802 10.1905 9.5345 10.0196 9.7168 9.85034C9.86979 9.71362 10.0033 9.58341 10.1172 9.45972C10.2311 9.33602 10.3206 9.20907 10.3857 9.07886C10.4508 8.94539 10.4834 8.79728 10.4834 8.63452C10.4834 8.44572 10.4541 8.28947 10.3955 8.16577C10.3402 8.03882 10.2555 7.94279 10.1416 7.87769C10.0309 7.81258 9.89095 7.78003 9.72168 7.78003C9.58171 7.78003 9.4515 7.81095 9.33105 7.8728C9.21061 7.9314 9.11133 8.02254 9.0332 8.14624C8.95833 8.26994 8.91927 8.4327 8.91602 8.63452H7.5C7.50977 8.18856 7.6123 7.82072 7.80762 7.53101C8.00618 7.23804 8.27148 7.02157 8.60352 6.88159C8.93555 6.73836 9.30827 6.66675 9.72168 6.66675C10.1774 6.66675 10.568 6.74162 10.8936 6.89136C11.2191 7.03784 11.4681 7.25431 11.6406 7.54077C11.8132 7.82397 11.8994 8.16903 11.8994 8.57593C11.8994 8.85913 11.8441 9.11141 11.7334 9.33276C11.6227 9.55086 11.4779 9.75431 11.2988 9.94311C11.1198 10.1319 10.9229 10.3272 10.708 10.5291C10.5225 10.6951 10.3955 10.8692 10.3271 11.0515C10.262 11.2338 10.2279 11.4503 10.2246 11.7009ZM8.83301 13.2097C8.83301 13.0014 8.90462 12.8289 9.04785 12.6921C9.19108 12.5522 9.38314 12.4822 9.62402 12.4822C9.86165 12.4822 10.0521 12.5522 10.1953 12.6921C10.3418 12.8289 10.415 13.0014 10.415 13.2097C10.415 13.4115 10.3418 13.5824 10.1953 13.7224C10.0521 13.8624 9.86165 13.9324 9.62402 13.9324C9.38314 13.9324 9.19108 13.8624 9.04785 13.7224C8.90462 13.5824 8.83301 13.4115 8.83301 13.2097Z"/>
<circle cx="10.0003" cy="10.0001" r="7.70833" stroke="currentColor" stroke-width="1.25"/>
</svg>
