<svg width="1600" height="226" viewBox="0 0 1600 226" fill="none" xmlns="http://www.w3.org/2000/svg">
<path d="M-166.98 198.545L-96.5247 7.84136C-94.7838 3.12911 -90.2919 0 -85.2683 0H194.191C202.133 0 207.885 7.57687 205.749 15.2267L139.202 253.602C137.551 259.514 131.706 263.227 125.653 262.209L-157.714 214.537C-165.133 213.289 -169.587 205.601 -166.98 198.545Z" fill="#EAC956"/>
<path opacity="0.4" d="M-136.98 265.545L-66.5247 74.8414C-64.7838 70.1291 -60.2919 67 -55.2683 67H224.191C232.133 67 237.885 74.5769 235.749 82.2267L169.202 320.602C167.551 326.514 161.706 330.227 155.653 329.209L-127.714 281.537C-135.133 280.289 -139.587 272.601 -136.98 265.545Z" fill="#EAC956"/>
<path d="M1766.98 198.545L1696.52 7.84136C1694.78 3.12911 1690.29 0 1685.27 0H1405.81C1397.87 0 1392.12 7.57687 1394.25 15.2267L1460.8 253.602C1462.45 259.514 1468.29 263.227 1474.35 262.209L1757.71 214.537C1765.13 213.289 1769.59 205.601 1766.98 198.545Z" fill="#EAC956"/>
<path opacity="0.4" d="M1736.98 265.545L1666.52 74.8414C1664.78 70.1291 1660.29 67 1655.27 67H1375.81C1367.87 67 1362.12 74.5769 1364.25 82.2267L1430.8 320.602C1432.45 326.514 1438.29 330.227 1444.35 329.209L1727.71 281.537C1735.13 280.289 1739.59 272.601 1736.98 265.545Z" fill="#EAC956"/>
</svg>
