<svg viewBox="0 0 48 48" fill="none" xmlns="http://www.w3.org/2000/svg"><circle cx="15.5" cy="25.75" r="1.25" stroke="currentColor" stroke-width="2"/><circle cx="15.5" cy="34.25" r="1.25" stroke="currentColor" stroke-width="2"/><circle cx="24" cy="25.75" r="1.25" stroke="currentColor" stroke-width="2"/><circle cx="32.5" cy="34.25" r="1.25" stroke="currentColor" stroke-width="2"/><path d="M32 8.063v-5m-16 5v-5m25 13.312H7" stroke="currentColor" stroke-width="3" stroke-linecap="round"/><rect x="5.5" y="5.5" width="37" height="37" rx="10.5" stroke="currentColor" stroke-width="3"/><path d="M44 36c0 .64-.08 1.26-.24 1.86-.18.8-.5 1.58-.92 2.26A7.94 7.94 0 0136 44c-2.06 0-3.92-.78-5.32-2.06-.6-.52-1.12-1.14-1.52-1.82A7.842 7.842 0 0128 36a7.99 7.99 0 018-8c2.36 0 4.5 1.02 5.94 2.66A7.968 7.968 0 0144 36z" fill="#EAC956" stroke="currentColor" stroke-width="3" stroke-miterlimit="10" stroke-linecap="round" stroke-linejoin="round"/><path d="M33 36h6m-3-3v6" stroke="currentColor" stroke-width="3" stroke-linecap="round"/></svg>