<?xml version="1.0" encoding="utf-8"?><svg viewBox="0 0 48 48" xmlns="http://www.w3.org/2000/svg" xmlns:xlink="http://www.w3.org/1999/xlink"><style>:root>svg{display:none}:root>svg:target{display:block}</style><svg viewBox="0 0 36 36" fill="none" id="acc-close" xmlns="http://www.w3.org/2000/svg"><g clip-path="url(#aa)" stroke="currentColor" stroke-width="2.25"><rect x="4.126" y="4.125" width="27.75" height="27.75" rx="9.427"/><path d="M21.184 14.818l-6.364 6.364m6.364 0l-6.364-6.364" stroke-linecap="round" stroke-linejoin="round"/></g><defs><clipPath id="aa"><path fill="#fff" d="M0 0h36v36H0z"/></clipPath></defs></svg><svg viewBox="0 0 36 36" fill="none" id="acc-open" xmlns="http://www.w3.org/2000/svg"><g clip-path="url(#ba)" stroke="currentColor" stroke-width="2.25"><rect x="4.126" y="4.125" width="27.75" height="27.75" rx="9.427"/><path d="M22.502 18h-9m4.5 4.5v-9" stroke-linecap="round" stroke-linejoin="round"/></g><defs><clipPath id="ba"><path fill="#fff" d="M0 0h36v36H0z"/></clipPath></defs></svg><svg fill="none" viewBox="0 0 24 24" id="arrow-right" xmlns="http://www.w3.org/2000/svg"><g clip-path="url(#ca)" stroke="#1D1D1B" stroke-width="1.5" stroke-linecap="round"><path d="M13.688 6.5L18.5 12l-4.812 5.5" stroke-linejoin="round"/><path d="M18.123 12H5.5"/></g><defs><clipPath id="ca"><path fill="#fff" transform="rotate(90 12 12)" d="M0 0h24v24H0z"/></clipPath></defs></svg><svg viewBox="0 0 20 20" fill="none" id="attach" xmlns="http://www.w3.org/2000/svg"><g clip-path="url(#da)" stroke="currentColor" stroke-width="1.25" stroke-linecap="round"><path d="M4.594 8.56l5.3-5.443 5.3 5.442" stroke-linejoin="round"/><path d="M9.893 3.543v11.168m6.252 2.573h-12.5"/></g><defs><clipPath id="da"><path fill="#fff" d="M0 0h20v20H0z"/></clipPath></defs></svg><svg viewBox="0 0 48 48" fill="none" id="benefits--calendar" xmlns="http://www.w3.org/2000/svg"><g clip-path="url(#ea)" stroke="currentColor"><circle cx="15.5" cy="25.75" r="1.25" stroke-width="2"/><circle cx="15.5" cy="34.25" r="1.25" stroke-width="2"/><circle cx="24" cy="25.75" r="1.25" stroke-width="2"/><circle cx="32.5" cy="34.25" r="1.25" stroke-width="2"/><path d="M32 8.063v-5m-16 5v-5m25 13.312H7" stroke-width="3" stroke-linecap="round"/><rect x="5.5" y="5.5" width="37" height="37" rx="10.5" stroke-width="3"/><path d="M44 36c0 .64-.08 1.26-.24 1.86-.18.8-.5 1.58-.92 2.26A7.94 7.94 0 0136 44c-2.06 0-3.92-.78-5.32-2.06-.6-.52-1.12-1.14-1.52-1.82A7.842 7.842 0 0128 36a7.99 7.99 0 018-8c2.36 0 4.5 1.02 5.94 2.66A7.968 7.968 0 0144 36z" fill="#EAC956" stroke-width="3" stroke-miterlimit="10" stroke-linecap="round" stroke-linejoin="round"/><path d="M33 36h6m-3-3v6" stroke-width="3" stroke-linecap="round"/></g><defs><clipPath id="ea"><path fill="#fff" d="M0 0h48v48H0z"/></clipPath></defs></svg><svg viewBox="0 0 48 48" fill="none" id="benefits--emailbox" xmlns="http://www.w3.org/2000/svg"><g clip-path="url(#fa)" stroke="currentColor" stroke-width="3" stroke-linecap="round"><path d="M33.188 20.787h1.374c4.419 0 8 3.644 8 8.062v0c0 4.418-3.581 8.063-8 8.063h-23.5a5.625 5.625 0 01-5.624-5.625v0a5.625 5.625 0 015.625-5.625h4.124"/><path d="M33.175 20.703c-1.456-5.31-6.667-8.51-11.64-7.146-4.973 1.363-7.825 6.773-6.37 12.083"/><path d="M30.716 26.191l-5.077-4.44-5.077 4.44" stroke-linejoin="round"/><path d="M25.64 22.098V31.5"/></g><defs><clipPath id="fa"><path fill="#fff" d="M0 0h48v48H0z"/></clipPath></defs></svg><svg fill="none" viewBox="0 0 48 48" id="benefits--hearth" xmlns="http://www.w3.org/2000/svg"><g clip-path="url(#ga)" stroke="#1D1D1B" stroke-width="3"><rect x="5.5" y="5.5" width="37" height="37" rx="12.57"/><path d="M24 18.088c-5.855-5.477-15.773.813 0 13.805m0-13.805c5.855-5.477 15.773.813 0 13.805" stroke-linecap="round"/></g><defs><clipPath id="ga"><path fill="#fff" d="M0 0h48v48H0z"/></clipPath></defs></svg><svg viewBox="0 0 48 48" fill="none" id="benefits--home-lock" xmlns="http://www.w3.org/2000/svg"><g clip-path="url(#ha)" stroke="currentColor" stroke-width="3"><path d="M36.234 12.195c1.71 1.274 2.92 2.177 3.823 2.969.885.777 1.388 1.376 1.72 2 .683 1.284.723 2.752.723 6.738v2.983c0 4.083-.004 6.97-.348 9.157-.333 2.117-.954 3.369-2.056 4.312-1.136.972-2.7 1.544-5.295 1.843-2.617.3-6.05.303-10.801.303-4.75 0-8.184-.002-10.801-.303-2.595-.299-4.159-.871-5.295-1.843-1.102-.943-1.723-2.195-2.056-4.312-.344-2.187-.348-5.074-.348-9.157v-2.983c0-3.986.04-5.454.723-6.738.332-.624.835-1.223 1.72-2 .902-.792 2.113-1.695 3.822-2.969 3.159-2.352 5.423-4.035 7.36-5.146C21.021 5.961 22.48 5.5 24 5.5s2.978.461 4.875 1.55c1.937 1.11 4.201 2.793 7.36 5.145z"/><rect x="15.5" y="23.96" width="17" height="10.29" rx="2.5"/><path d="M29.972 23.189v-1.467A5.972 5.972 0 0024 15.75v0a5.972 5.972 0 00-5.972 5.972v1.467" stroke-linecap="round"/></g><defs><clipPath id="ha"><path fill="#fff" d="M0 0h48v48H0z"/></clipPath></defs></svg><svg viewBox="0 0 48 48" fill="none" id="benefits--reward" xmlns="http://www.w3.org/2000/svg"><g clip-path="url(#ia)" stroke="currentColor" stroke-width="3"><path d="M31.501 17.204c0 4.144-3.36 10.958-7.503 10.958-4.145 0-7.504-6.814-7.504-10.958a7.503 7.503 0 1115.007 0z"/><path d="M23.998 8.903V5.338M7.999 22.496v-3.565m32 3.565v-3.565" stroke-linecap="round"/><path d="M16.74 18.931H4m27.26 0H44m-22.959-2.257l1.602.578a4 4 0 002.713 0l1.602-.578" stroke-linecap="round" stroke-linejoin="round"/><path d="M10 42.25l2-16.5m26 16.5l-2-16.5" stroke-linecap="round"/><path d="M24 42.438V32" stroke-linecap="round" stroke-dasharray="6 6"/></g><defs><clipPath id="ia"><path fill="#fff" d="M0 0h48v48H0z"/></clipPath></defs></svg><svg fill="none" viewBox="0 0 48 48" id="benefits--safety" xmlns="http://www.w3.org/2000/svg"><g clip-path="url(#ja)" stroke="#1D1D1B" stroke-width="3"><path d="M8.223 12.176a.7.7 0 01.448-.653l11.55-4.457c2.24-.864 3.007-1.135 3.78-1.135.773 0 1.54.27 3.78 1.135l11.55 4.457a.7.7 0 01.448.653v7.242a24.615 24.615 0 01-15.754 22.965l.54 1.4-.54-1.4a.068.068 0 01-.048 0l-.54 1.4.54-1.4A24.615 24.615 0 018.223 19.418v-7.242z"/><path d="M18 21.151l4 4 8-8" stroke-linecap="round" stroke-linejoin="round"/></g><defs><clipPath id="ja"><path fill="#fff" d="M0 0h48v48H0z"/></clipPath></defs></svg><svg viewBox="0 0 48 48" fill="none" id="benefits--sendmoney" xmlns="http://www.w3.org/2000/svg"><g clip-path="url(#ka)" stroke="currentColor" stroke-width="3" stroke-linecap="round"><path d="M29.044 17.48a8 8 0 100 13.039"/><path d="M14.207 21.6H25.46m-11.253 4.8H25.46" stroke-linejoin="round"/><path d="M27.726 6.386A18.074 18.074 0 0024 6C14.059 6 6 14.059 6 24s8.059 18 18 18 18-8.059 18-18c0-1.849-.279-3.632-.796-5.311"/><path d="M30.625 11.045l4 4 8-8" stroke-linejoin="round"/></g><defs><clipPath id="ka"><path fill="#fff" d="M0 0h48v48H0z"/></clipPath></defs></svg><svg viewBox="0 0 48 48" fill="none" id="benefits--trendup" xmlns="http://www.w3.org/2000/svg"><g clip-path="url(#la)" stroke="currentColor" stroke-width="3" stroke-linecap="round" stroke-linejoin="round"><path d="M6 31.86l10.14-10.142L26.283 31.86 42 16.141"/><path d="M33.047 16.141H42v8.953"/></g><defs><clipPath id="la"><path fill="#fff" d="M0 0h48v48H0z"/></clipPath></defs></svg><svg viewBox="0 0 36 36" fill="none" id="close" xmlns="http://www.w3.org/2000/svg"><g clip-path="url(#ma)" stroke="currentColor" stroke-width="2.25"><rect x="4.126" y="4.125" width="27.75" height="27.75" rx="9.427"/><path d="M21.185 14.818l-6.364 6.364m6.364 0l-6.364-6.364" stroke-linecap="round" stroke-linejoin="round"/></g><defs><clipPath id="ma"><path fill="#fff" d="M0 0h36v36H0z"/></clipPath></defs></svg><svg viewBox="0 0 20 20" fill="none" id="download" xmlns="http://www.w3.org/2000/svg"><g clip-path="url(#na)" stroke="currentColor" stroke-width="1.25" stroke-linecap="round"><path d="M15.196 9.269l-5.3 5.442-5.3-5.442" stroke-linejoin="round"/><path d="M9.896 14.285V3.117m6.249 14.167h-12.5"/></g><defs><clipPath id="na"><path fill="#fff" d="M0 0h20v20H0z"/></clipPath></defs></svg><svg viewBox="0 0 30 30" fill="none" id="inbox" xmlns="http://www.w3.org/2000/svg"><g clip-path="url(#oa)" stroke="currentColor" stroke-width="1.875"><rect x="3.438" y="5.938" width="23.125" height="18.125" rx="4.063"/><path d="M5 6.875l6.464 6.464c1.667 1.667 2.5 2.5 3.536 2.5 1.035 0 1.869-.833 3.535-2.5L25 6.875" stroke-linecap="round"/><path d="M11.875 15l-7.813 7.813M18.125 15l7.813 7.813"/></g><defs><clipPath id="oa"><path fill="#fff" d="M0 0h30v30H0z"/></clipPath></defs></svg><svg fill="none" viewBox="0 0 12 12" id="linkedin" xmlns="http://www.w3.org/2000/svg"><path d="M1.449.104c.786 0 1.448.662 1.448 1.448 0 .827-.704 1.469-1.448 1.448C.683 3.02 0 2.38 0 1.552-.02.745.642.104 1.45.104zm.806 11.792H.6a.415.415 0 01-.413-.414v-7.24c0-.228.165-.414.393-.414h1.675c.228 0 .414.186.414.413v7.262c0 .207-.186.393-.414.393zm9.724-5.544c0-1.531-1.138-2.731-2.669-2.731h-.434c-.828 0-1.635.393-2.07 1.034l-.206.207v-.828c0-.082-.124-.206-.207-.206H4.324c-.083 0-.207.082-.207.186v7.717c0 .082.124.165.207.165H6.6c.083 0 .207-.083.207-.165V7.26c0-.765.579-1.406 1.345-1.427.393 0 .744.145 1.013.414.249.248.352.6.352.993v4.448c0 .083.124.207.207.207h2.069c.083 0 .207-.124.207-.207V6.352h-.021z" fill="#1D1D1B"/></svg><svg viewBox="0 0 20 20" fill="none" id="off" xmlns="http://www.w3.org/2000/svg"><g clip-path="url(#qa)" stroke="currentColor"><path d="M8.232 8.434l3.536 3.536m0-3.536L8.232 11.97" stroke-linecap="round"/><circle cx="10" cy="10" r="7.833"/></g><defs><clipPath id="qa"><path fill="#fff" d="M0 0h20v20H0z"/></clipPath></defs></svg><svg viewBox="0 0 20 20" fill="none" id="on" xmlns="http://www.w3.org/2000/svg"><g clip-path="url(#ra)" stroke="currentColor"><path d="M7.5 10l1.667 1.667L12.5 8.333" stroke-linecap="round" stroke-linejoin="round"/><circle cx="10" cy="10" r="7.833"/></g><defs><clipPath id="ra"><path fill="#fff" d="M0 0h20v20H0z"/></clipPath></defs></svg><svg viewBox="0 0 40 40" fill="none" id="play" xmlns="http://www.w3.org/2000/svg"><g clip-path="url(#sa)"><path d="M24.241 9.56c3.134 1.79 5.414 3.095 7.063 4.23 1.656 1.14 2.515 2.005 2.952 2.853a7.329 7.329 0 010 6.714c-.437.848-1.296 1.714-2.952 2.853-1.649 1.136-3.93 2.44-7.063 4.23-3.092 1.768-5.343 3.052-7.135 3.886-1.799.837-2.969 1.136-3.916 1.085a7.328 7.328 0 01-5.773-3.35c-.514-.797-.835-1.961-1-3.938-.166-1.97-.167-4.562-.167-8.123 0-3.561.001-6.153.166-8.123.166-1.977.487-3.14 1.001-3.938a7.328 7.328 0 015.773-3.35c.947-.05 2.117.248 3.916 1.085 1.792.833 4.043 2.118 7.135 3.885z" stroke="currentColor" stroke-width="2.5"/></g><defs><clipPath id="sa"><path fill="#fff" d="M0 0h40v40H0z"/></clipPath></defs></svg><svg viewBox="0 0 24 24" fill="none" id="repeat" xmlns="http://www.w3.org/2000/svg"><g clip-path="url(#ta)" stroke="currentColor" stroke-width="1.5" stroke-linecap="round"><path d="M12 4.744a8.5 8.5 0 106.88 3.506"/><path d="M10.493 7.46l2.455-3.057-3.72-1.236" stroke-linejoin="round"/></g><defs><clipPath id="ta"><path fill="#fff" d="M0 0h24v24H0z"/></clipPath></defs></svg></svg>