<svg width="225" height="50" fill="none" xmlns="http://www.w3.org/2000/svg"><path d="M0 50V0h225v50H0z" fill="#FECC00"/><path d="M72.545 20.892c-.983 1.34-2.628 3.671-3.63 5.032-.508.693-1.426 1.95 1.617 1.95h16.023s2.582-3.538 4.747-6.496c2.944-4.025.254-12.4-10.273-12.4H39.57l-7.188 9.836h39.18c1.977 0 1.95.758.984 2.078zM60.775 30.3c-3.044 0-2.126-1.26-1.618-1.952 1.002-1.361 2.674-3.668 3.657-5.008.968-1.32.993-2.078-.987-2.078H43.908L29.471 41.019H64.68c11.629 0 18.103-7.965 20.099-10.718L60.774 30.3zm22.903 10.719h20.654l7.83-10.72-20.652.002a9898.38 9898.38 0 00-7.832 10.718zm53.29-32.04l-7.922 10.835h-9.218l7.918-10.835h-20.647L93.285 27.874h50.518l13.81-18.895h-20.645zm-23.418 32.04h20.646L142.03 30.3h-20.646a8334.66 8334.66 0 00-7.834 10.718zM0 34.528v2.276h28.765l1.661-2.276H0zM33.518 30.3H0v2.274h31.852l1.666-2.274zM0 41.019h25.683l1.654-2.264H0v2.264zm194.689-4.216H225v-2.276h-28.647l-1.664 2.276zm-3.079 4.216H225v-2.264h-31.737l-1.653 2.264zm7.83-10.72l-1.661 2.277H225V30.3h-25.56zm-27.044-2.425l13.813-18.895h-21.868c-.008 0-13.823 18.895-13.823 18.895h21.878zM148.747 30.3s-1.509 2.076-2.242 3.077c-2.593 3.527-.3 7.642 8.162 7.642h33.16l7.834-10.718-46.914-.001z" fill="#D50029"/></svg>