<svg width="196" height="74" fill="none" xmlns="http://www.w3.org/2000/svg"><path d="M194.813 41.207H18.463V18.322h176.35v22.885z" fill="#FECC00"/><path d="M194.271 1.729v70.434H1.729V1.73H194.27zM196 0H0v73.892h196V0z" fill="#007C39"/><path d="M27.479 41.726a9.286 9.286 0 01-6.605-2.253 7.993 7.993 0 01-2.41-6.137c0-.532.034-1.145.104-1.838a23.08 23.08 0 01.312-2.115c.693-3.768 2.04-6.64 4.04-8.616a10.42 10.42 0 017.645-2.965 9.333 9.333 0 017.663 3.467l-3.26 2.947a5.598 5.598 0 00-1.924-1.543 5.746 5.746 0 00-2.41-.468 5.562 5.562 0 00-4.386 1.82 11.76 11.76 0 00-2.306 5.774 19.26 19.26 0 00-.346 3.294 4.329 4.329 0 001.057 3.138 3.982 3.982 0 003 1.092 4.966 4.966 0 003.536-1.3 6.268 6.268 0 001.769-3.727l.034-.209h-4.577l.728-4.16h9.57l-.555 3.224c-1.225 7.051-4.785 10.576-10.68 10.575zm23.023 0a9.677 9.677 0 01-6.727-2.218 7.714 7.714 0 01-2.461-6.034c.023-1.373.163-2.741.416-4.091.647-3.745 1.959-6.611 3.935-8.6a10.271 10.271 0 017.611-2.981 9.68 9.68 0 016.727 2.219 7.717 7.717 0 012.462 6.033 24.45 24.45 0 01-.416 4.092c-.648 3.745-1.96 6.61-3.936 8.599a10.271 10.271 0 01-7.61 2.981zm.139-4.403a5.133 5.133 0 004.143-1.838 12.096 12.096 0 002.202-5.755c.116-.6.202-1.219.26-1.855.058-.636.087-1.162.087-1.578a4.02 4.02 0 00-1.093-3.051 4.324 4.324 0 00-3.103-1.04 5.134 5.134 0 00-4.143 1.838 12.084 12.084 0 00-2.202 5.755 18.563 18.563 0 00-.26 1.855 17.962 17.962 0 00-.087 1.578 4.018 4.018 0 001.093 3.051 4.324 4.324 0 003.103 1.04z" fill="#4B4B4B"/><path d="M74.114 41.726a9.286 9.286 0 01-6.606-2.253 7.994 7.994 0 01-2.41-6.137c0-.532.035-1.145.104-1.838.07-.694.174-1.399.312-2.115.694-3.768 2.04-6.64 4.04-8.616a10.422 10.422 0 017.646-2.965 9.334 9.334 0 017.662 3.467l-3.259 2.947a5.598 5.598 0 00-1.924-1.543 5.746 5.746 0 00-2.41-.468 5.562 5.562 0 00-4.387 1.82 11.761 11.761 0 00-2.305 5.774 19.294 19.294 0 00-.347 3.294 4.33 4.33 0 001.058 3.138 3.983 3.983 0 002.999 1.092 4.966 4.966 0 003.536-1.3 6.267 6.267 0 001.77-3.728l.034-.208H75.05l.728-4.16h9.57l-.555 3.224c-1.225 7.051-4.785 10.576-10.68 10.575zm13.14-.52l4.023-22.884h8.01a9.673 9.673 0 016.033 1.681 5.31 5.31 0 012.185 4.421c0 .278-.018.607-.052.989-.035.38-.087.768-.156 1.161a8.114 8.114 0 01-1.613 3.814 6.753 6.753 0 01-3.346 2.116l3.433 8.703h-5.582l-2.879-8.114h-3.57l-1.422 8.113h-5.062zm11.409-18.758H95.61l-1.144 6.519h3.12a6.463 6.463 0 003.364-.694 3.205 3.205 0 001.387-2.323 1.91 1.91 0 00.069-.45v-.209c0-1.895-1.248-2.843-3.744-2.843zm10.783 18.758l4.022-22.884h15.083l-.762 4.369h-9.952l-.866 4.82h8.945l-.728 4.23h-8.946l-.901 5.097h10.298l-.763 4.369h-15.43zm19.833 0l4.022-22.884h15.083l-.762 4.369h-9.952l-.866 4.82h8.946l-.728 4.23h-8.946l-.902 5.097h10.298l-.762 4.369h-15.431zm19.66 0l4.022-22.884h6.519l4.611 16.193h.555l2.844-16.193h4.82l-4.022 22.884h-6.519l-4.612-16.192h-.555l-2.843 16.192h-4.82z" fill="#007C39"/></svg>