<svg viewBox="0 0 48 48" fill="none" xmlns="http://www.w3.org/2000/svg"><path d="M36.234 12.195c1.71 1.274 2.92 2.177 3.823 2.969.885.777 1.388 1.376 1.72 2 .683 1.284.723 2.752.723 6.738v2.983c0 4.083-.004 6.97-.348 9.157-.333 2.117-.954 3.369-2.056 4.312-1.136.972-2.7 1.544-5.295 1.843-2.617.3-6.05.303-10.801.303-4.75 0-8.184-.002-10.801-.303-2.595-.299-4.159-.871-5.295-1.843-1.102-.943-1.723-2.195-2.056-4.312-.344-2.187-.348-5.074-.348-9.157v-2.983c0-3.986.04-5.454.723-6.738.332-.624.835-1.223 1.72-2 .902-.792 2.113-1.695 3.822-2.969 3.159-2.352 5.423-4.035 7.36-5.146C21.021 5.961 22.48 5.5 24 5.5s2.978.461 4.875 1.55c1.937 1.11 4.201 2.793 7.36 5.145z" stroke="currentColor" stroke-width="3"/><rect x="15.5" y="23.96" width="17" height="10.29" rx="2.5" stroke="currentColor" stroke-width="3"/><path d="M29.972 23.189v-1.467A5.972 5.972 0 0024 15.75v0a5.972 5.972 0 00-5.972 5.972v1.467" stroke="currentColor" stroke-width="3" stroke-linecap="round"/></svg>