<svg width="48" height="48" fill="none" xmlns="http://www.w3.org/2000/svg"><path d="M8.223 12.176a.7.7 0 01.448-.653l11.55-4.457c2.24-.864 3.007-1.135 3.78-1.135.773 0 1.54.27 3.78 1.135l11.55 4.457a.7.7 0 01.448.653v7.242a24.615 24.615 0 01-15.754 22.965l.54 1.4-.54-1.4a.068.068 0 01-.048 0l-.54 1.4.54-1.4A24.615 24.615 0 018.223 19.418v-7.242z" stroke="#1D1D1B" stroke-width="3"/><path d="M18 21.151l4 4 8-8" stroke="#1D1D1B" stroke-width="3" stroke-linecap="round" stroke-linejoin="round"/></svg>