<svg xmlns="http://www.w3.org/2000/svg" xmlns:xlink="http://www.w3.org/1999/xlink"><defs><symbol fill="none" viewBox="0 0 36 36" id="acc-close"><rect width="27.75" height="27.75" x="4.126" y="4.125" stroke="currentColor" stroke-width="2.25" rx="9.427" /><path stroke="currentColor" stroke-linecap="round" stroke-linejoin="round" stroke-width="2.25" d="m21.184 14.818-6.364 6.364m6.364 0-6.364-6.364" /></symbol><symbol fill="none" viewBox="0 0 36 36" id="acc-open"><rect width="27.75" height="27.75" x="4.126" y="4.125" stroke="currentColor" stroke-width="2.25" rx="9.427" /><path stroke="currentColor" stroke-linecap="round" stroke-linejoin="round" stroke-width="2.25" d="M22.502 18h-9m4.5 4.5v-9" /></symbol><symbol fill="none" viewBox="0 0 24 24" id="arrow-right"><path stroke="#1D1D1B" stroke-linecap="round" stroke-linejoin="round" stroke-width="1.5" d="M13.688 6.5 18.5 12l-4.812 5.5" /><path stroke="#1D1D1B" stroke-linecap="round" stroke-width="1.5" d="M18.123 12H5.5" /></symbol><symbol fill="none" viewBox="0 0 20 20" id="attach"><path stroke="currentColor" stroke-linecap="round" stroke-linejoin="round" stroke-width="1.25" d="m4.594 8.56 5.3-5.443 5.3 5.442" /><path stroke="currentColor" stroke-linecap="round" stroke-width="1.25" d="M9.893 3.543v11.168m6.252 2.573h-12.5" /></symbol><symbol fill="none" viewBox="0 0 48 48" id="calendar"><circle cx="15.5" cy="25.75" r="1.25" stroke="currentColor" stroke-width="2" /><circle cx="15.5" cy="34.25" r="1.25" stroke="currentColor" stroke-width="2" /><circle cx="24" cy="25.75" r="1.25" stroke="currentColor" stroke-width="2" /><circle cx="32.5" cy="34.25" r="1.25" stroke="currentColor" stroke-width="2" /><path stroke="currentColor" stroke-linecap="round" stroke-width="3" d="M32 8.063v-5m-16 5v-5m25 13.312H7" /><rect width="37" height="37" x="5.5" y="5.5" stroke="currentColor" stroke-width="3" rx="10.5" /><path fill="#EAC956" stroke="currentColor" stroke-linecap="round" stroke-linejoin="round" stroke-miterlimit="10" stroke-width="3" d="M44 36c0 .64-.08 1.26-.24 1.86-.18.8-.5 1.58-.92 2.26A7.94 7.94 0 0 1 36 44c-2.06 0-3.92-.78-5.32-2.06-.6-.52-1.12-1.14-1.52-1.82A7.842 7.842 0 0 1 28 36a7.99 7.99 0 0 1 8-8c2.36 0 4.5 1.02 5.94 2.66A7.968 7.968 0 0 1 44 36Z" /><path stroke="currentColor" stroke-linecap="round" stroke-width="3" d="M33 36h6m-3-3v6" /></symbol><symbol fill="none" viewBox="0 0 36 36" id="close"><rect width="27.75" height="27.75" x="4.126" y="4.125" stroke="currentColor" stroke-width="2.25" rx="9.427" /><path stroke="currentColor" stroke-linecap="round" stroke-linejoin="round" stroke-width="2.25" d="m21.185 14.818-6.364 6.364m6.364 0-6.364-6.364" /></symbol><symbol fill="none" viewBox="0 0 20 20" id="download"><path stroke="currentColor" stroke-linecap="round" stroke-linejoin="round" stroke-width="1.25" d="m15.196 9.269-5.3 5.442-5.3-5.442" /><path stroke="currentColor" stroke-linecap="round" stroke-width="1.25" d="M9.896 14.285V3.117m6.25 14.167h-12.5" /></symbol><symbol fill="none" viewBox="0 0 48 48" id="emailbox"><path stroke="currentColor" stroke-linecap="round" stroke-width="3" d="M33.188 20.787h1.374c4.419 0 8 3.644 8 8.062v0c0 4.418-3.581 8.063-8 8.063h-23.5a5.625 5.625 0 0 1-5.624-5.625v0a5.625 5.625 0 0 1 5.625-5.625h4.124" /><path stroke="currentColor" stroke-linecap="round" stroke-width="3" d="M33.175 20.703c-1.456-5.31-6.667-8.51-11.64-7.146-4.973 1.363-7.825 6.773-6.37 12.083" /><path stroke="currentColor" stroke-linecap="round" stroke-linejoin="round" stroke-width="3" d="m30.716 26.191-5.077-4.44-5.077 4.44" /><path stroke="currentColor" stroke-linecap="round" stroke-width="3" d="M25.64 22.098V31.5" /></symbol><symbol fill="none" viewBox="0 0 48 48" id="hearth"><rect width="37" height="37" x="5.5" y="5.5" stroke="#1D1D1B" stroke-width="3" rx="12.57" /><path stroke="#1D1D1B" stroke-linecap="round" stroke-width="3" d="M24 18.088c-5.855-5.477-15.773.813 0 13.805m0-13.805c5.855-5.477 15.773.813 0 13.805" /></symbol><symbol fill="none" viewBox="0 0 48 48" id="home-lock"><path stroke="currentColor" stroke-width="3" d="M36.234 12.195c1.71 1.274 2.92 2.177 3.823 2.969.885.777 1.388 1.376 1.72 2 .683 1.284.723 2.752.723 6.738v2.983c0 4.083-.004 6.97-.348 9.157-.333 2.117-.954 3.369-2.056 4.312-1.136.972-2.7 1.544-5.295 1.843-2.617.3-6.05.303-10.801.303-4.75 0-8.184-.002-10.801-.303-2.595-.299-4.159-.871-5.295-1.843-1.102-.943-1.723-2.195-2.056-4.312-.344-2.187-.348-5.074-.348-9.157v-2.983c0-3.986.04-5.454.723-6.738.332-.624.835-1.223 1.72-2 .902-.792 2.113-1.695 3.822-2.969 3.159-2.352 5.423-4.035 7.36-5.146C21.021 5.961 22.48 5.5 24 5.5s2.978.461 4.875 1.55c1.937 1.11 4.201 2.793 7.36 5.145Z" /><rect width="17" height="10.29" x="15.5" y="23.96" stroke="currentColor" stroke-width="3" rx="2.5" /><path stroke="currentColor" stroke-linecap="round" stroke-width="3" d="M29.972 23.189v-1.467A5.972 5.972 0 0 0 24 15.75v0a5.972 5.972 0 0 0-5.972 5.972v1.467" /></symbol><symbol fill="none" viewBox="0 0 30 30" id="inbox"><rect width="23.125" height="18.125" x="3.438" y="5.938" stroke="currentColor" stroke-width="1.875" rx="4.063" /><path stroke="currentColor" stroke-linecap="round" stroke-width="1.875" d="m5 6.875 6.464 6.464c1.667 1.667 2.5 2.5 3.536 2.5 1.035 0 1.869-.833 3.535-2.5L25 6.875" /><path stroke="currentColor" stroke-width="1.875" d="m11.875 15-7.813 7.813M18.126 15l7.813 7.813" /></symbol><symbol fill="none" viewBox="0 0 12 12" id="linkedin"><path fill="#1D1D1B" d="M1.449.104c.786 0 1.448.662 1.448 1.448 0 .827-.704 1.469-1.448 1.448C.683 3.02 0 2.38 0 1.552-.02.745.642.104 1.45.104Zm.806 11.792H.6a.415.415 0 0 1-.413-.414v-7.24c0-.228.165-.414.393-.414h1.675c.228 0 .414.186.414.413v7.262c0 .207-.186.393-.414.393Zm9.724-5.544c0-1.531-1.138-2.731-2.669-2.731h-.434c-.828 0-1.635.393-2.07 1.034l-.206.207v-.828c0-.082-.124-.206-.207-.206H4.324c-.083 0-.207.082-.207.186v7.717c0 .082.124.165.207.165H6.6c.083 0 .207-.083.207-.165V7.26c0-.765.579-1.406 1.345-1.427.393 0 .744.145 1.013.414.249.248.352.6.352.993v4.448c0 .083.124.207.207.207h2.069c.083 0 .207-.124.207-.207V6.352h-.021Z" /></symbol><symbol fill="none" viewBox="0 0 20 20" id="off"><path stroke="currentColor" stroke-linecap="round" d="m8.232 8.434 3.536 3.536m0-3.536L8.232 11.97" /><circle cx="10" cy="10" r="7.833" stroke="currentColor" /></symbol><symbol fill="none" viewBox="0 0 20 20" id="on"><path stroke="currentColor" stroke-linecap="round" stroke-linejoin="round" d="m7.5 10 1.667 1.667L12.5 8.333" /><circle cx="10" cy="10" r="7.833" stroke="currentColor" /></symbol><symbol fill="none" viewBox="0 0 19 19" id="phone"><path stroke="currentColor" stroke-linecap="round" stroke-linejoin="round" stroke-width="1.104" d="M17.984 14.257v2.357c.004.901-.857 1.654-1.824 1.572-8.343.006-14.812-6.14-14.806-13.94-.087-.904.709-1.711 1.665-1.712h2.51c.405-.004.799.131 1.107.38.875.707 1.438 3.106 1.221 4.06-.17.745-.967 1.266-1.509 1.775 1.19 1.967 2.925 3.596 5.02 4.714.541-.509 1.096-1.258 1.889-1.417 1.017-.204 3.583.327 4.33 1.156.266.294.407.67.397 1.055Z" /></symbol><symbol fill="none" viewBox="0 0 40 40" id="play"><path stroke="currentColor" stroke-width="2.5" d="M24.241 9.56c3.134 1.79 5.414 3.095 7.063 4.23 1.656 1.14 2.515 2.005 2.952 2.853a7.329 7.329 0 0 1 0 6.714c-.437.848-1.296 1.714-2.952 2.853-1.649 1.136-3.93 2.44-7.063 4.23-3.092 1.768-5.343 3.052-7.135 3.886-1.799.837-2.969 1.136-3.916 1.085a7.328 7.328 0 0 1-5.773-3.35c-.514-.797-.835-1.961-1-3.938-.166-1.97-.167-4.562-.167-8.123 0-3.561.001-6.153.166-8.123.166-1.977.487-3.14 1.001-3.938a7.328 7.328 0 0 1 5.773-3.35c.947-.05 2.117.248 3.916 1.085 1.792.833 4.043 2.118 7.135 3.885Z" /></symbol><symbol fill="none" viewBox="0 0 24 24" id="repeat"><path stroke="currentColor" stroke-linecap="round" stroke-width="1.5" d="M12 4.744a8.5 8.5 0 1 0 6.88 3.506" /><path stroke="currentColor" stroke-linecap="round" stroke-linejoin="round" stroke-width="1.5" d="m10.493 7.46 2.455-3.057-3.72-1.236" /></symbol><symbol fill="none" viewBox="0 0 48 48" id="reward"><path stroke="currentColor" stroke-width="3" d="M31.501 17.204c0 4.144-3.36 10.958-7.503 10.958-4.145 0-7.504-6.814-7.504-10.958a7.503 7.503 0 1 1 15.007 0Z" /><path stroke="currentColor" stroke-linecap="round" stroke-width="3" d="M23.998 8.903V5.338M7.999 22.496v-3.565m32 3.565v-3.565" /><path stroke="currentColor" stroke-linecap="round" stroke-linejoin="round" stroke-width="3" d="M16.74 18.931H4m27.26 0H44m-22.959-2.257 1.602.578a4 4 0 0 0 2.713 0l1.602-.578" /><path stroke="currentColor" stroke-linecap="round" stroke-width="3" d="m10 42.25 2-16.5m26 16.5-2-16.5" /><path stroke="currentColor" stroke-dasharray="6 6" stroke-linecap="round" stroke-width="3" d="M24 42.438V32" /></symbol><symbol fill="none" viewBox="0 0 20 20" id="right-arrow"><path stroke="currentColor" stroke-linecap="round" stroke-linejoin="round" stroke-width="1.5" d="M5.416 19.166 14.583 10 5.416.833" /></symbol><symbol fill="none" viewBox="0 0 48 48" id="safety"><path stroke="#1D1D1B" stroke-width="3" d="M8.223 12.176a.7.7 0 0 1 .448-.653l11.55-4.457c2.24-.864 3.007-1.135 3.78-1.135.773 0 1.54.27 3.78 1.135l11.55 4.457a.7.7 0 0 1 .448.653v7.242a24.615 24.615 0 0 1-15.754 22.965l.54 1.4-.54-1.4a.068.068 0 0 1-.048 0l-.54 1.4.54-1.4A24.615 24.615 0 0 1 8.223 19.418v-7.242Z" /><path stroke="#1D1D1B" stroke-linecap="round" stroke-linejoin="round" stroke-width="3" d="m18 21.151 4 4 8-8" /></symbol><symbol fill="none" viewBox="0 0 48 48" id="sendmoney"><path stroke="currentColor" stroke-linecap="round" stroke-width="3" d="M29.044 17.48a8 8 0 1 0 0 13.039" /><path stroke="currentColor" stroke-linecap="round" stroke-linejoin="round" stroke-width="3" d="M14.207 21.6H25.46m-11.253 4.8H25.46" /><path stroke="currentColor" stroke-linecap="round" stroke-width="3" d="M27.726 6.386A18.074 18.074 0 0 0 24 6C14.059 6 6 14.059 6 24s8.059 18 18 18 18-8.059 18-18c0-1.849-.279-3.632-.796-5.311" /><path stroke="currentColor" stroke-linecap="round" stroke-linejoin="round" stroke-width="3" d="m30.625 11.045 4 4 8-8" /></symbol><symbol fill="none" viewBox="0 0 48 48" id="trendup"><path stroke="currentColor" stroke-linecap="round" stroke-linejoin="round" stroke-width="3" d="m6 31.86 10.14-10.142L26.283 31.86 42 16.141" /><path stroke="currentColor" stroke-linecap="round" stroke-linejoin="round" stroke-width="3" d="M33.047 16.141H42v8.953" /></symbol></defs></svg>