<?xml version="1.0" encoding="utf-8"?><svg viewBox="0 0 128 128" xmlns="http://www.w3.org/2000/svg" xmlns:xlink="http://www.w3.org/1999/xlink"><style>:root>svg{display:none}:root>svg:target{display:block}</style><svg viewBox="0 0 36 36" fill="none" id="acc-close" xmlns="http://www.w3.org/2000/svg"><rect x="4.126" y="4.125" width="27.75" height="27.75" rx="9.427" stroke="currentColor" stroke-width="2.25"/><path d="m21.184 14.818-6.364 6.364m6.364 0-6.364-6.364" stroke="currentColor" stroke-width="2.25" stroke-linecap="round" stroke-linejoin="round"/></svg><svg viewBox="0 0 36 36" fill="none" id="acc-open" xmlns="http://www.w3.org/2000/svg"><rect x="4.126" y="4.125" width="27.75" height="27.75" rx="9.427" stroke="currentColor" stroke-width="2.25"/><path d="M22.502 18h-9m4.5 4.5v-9" stroke="currentColor" stroke-width="2.25" stroke-linecap="round" stroke-linejoin="round"/></svg><svg fill="none" viewBox="0 0 24 24" id="arrow-right" xmlns="http://www.w3.org/2000/svg"><path d="M13.688 6.5 18.5 12l-4.812 5.5" stroke="#1D1D1B" stroke-width="1.5" stroke-linecap="round" stroke-linejoin="round"/><path d="M18.123 12H5.5" stroke="#1D1D1B" stroke-width="1.5" stroke-linecap="round"/></svg><svg viewBox="0 0 20 20" fill="none" id="attach" xmlns="http://www.w3.org/2000/svg"><path d="m4.594 8.56 5.3-5.443 5.3 5.442" stroke="currentColor" stroke-width="1.25" stroke-linecap="round" stroke-linejoin="round"/><path d="M9.893 3.543v11.168m6.252 2.573h-12.5" stroke="currentColor" stroke-width="1.25" stroke-linecap="round"/></svg><svg viewBox="0 0 36 36" fill="none" id="close" xmlns="http://www.w3.org/2000/svg"><rect x="4.126" y="4.125" width="27.75" height="27.75" rx="9.427" stroke="currentColor" stroke-width="2.25"/><path d="m21.185 14.818-6.364 6.364m6.364 0-6.364-6.364" stroke="currentColor" stroke-width="2.25" stroke-linecap="round" stroke-linejoin="round"/></svg><svg viewBox="0 0 20 20" fill="none" id="download" xmlns="http://www.w3.org/2000/svg"><path d="m15.196 9.269-5.3 5.442-5.3-5.442" stroke="currentColor" stroke-width="1.25" stroke-linecap="round" stroke-linejoin="round"/><path d="M9.896 14.285V3.117m6.249 14.167h-12.5" stroke="currentColor" stroke-width="1.25" stroke-linecap="round"/></svg><svg viewBox="0 0 30 30" fill="none" id="inbox" xmlns="http://www.w3.org/2000/svg"><rect x="3.438" y="5.938" width="23.125" height="18.125" rx="4.063" stroke="currentColor" stroke-width="1.875"/><path d="m5 6.875 6.464 6.464c1.667 1.667 2.5 2.5 3.536 2.5 1.035 0 1.869-.833 3.535-2.5L25 6.875" stroke="currentColor" stroke-width="1.875" stroke-linecap="round"/><path d="m11.875 15-7.813 7.813M18.125 15l7.813 7.813" stroke="currentColor" stroke-width="1.875"/></svg><svg fill="none" viewBox="0 0 12 12" id="linkedin" xmlns="http://www.w3.org/2000/svg"><path d="M1.449.104c.786 0 1.448.662 1.448 1.448 0 .827-.704 1.469-1.448 1.448C.683 3.02 0 2.38 0 1.552-.02.745.642.104 1.45.104zm.806 11.792H.6a.415.415 0 0 1-.413-.414v-7.24c0-.228.165-.414.393-.414h1.675c.228 0 .414.186.414.413v7.262c0 .207-.186.393-.414.393zm9.724-5.544c0-1.531-1.138-2.731-2.669-2.731h-.434c-.828 0-1.635.393-2.07 1.034l-.206.207v-.828c0-.082-.124-.206-.207-.206H4.324c-.083 0-.207.082-.207.186v7.717c0 .082.124.165.207.165H6.6c.083 0 .207-.083.207-.165V7.26c0-.765.579-1.406 1.345-1.427.393 0 .744.145 1.013.414.249.248.352.6.352.993v4.448c0 .083.124.207.207.207h2.069c.083 0 .207-.124.207-.207V6.352h-.021z" fill="#1D1D1B"/></svg><svg viewBox="0 0 20 20" fill="none" id="off" xmlns="http://www.w3.org/2000/svg"><path d="m8.232 8.434 3.536 3.536m0-3.536L8.232 11.97" stroke="currentColor" stroke-linecap="round"/><circle cx="10" cy="10" r="7.833" stroke="currentColor"/></svg><svg viewBox="0 0 20 20" fill="none" id="on" xmlns="http://www.w3.org/2000/svg"><path d="m7.5 10 1.667 1.667L12.5 8.333" stroke="currentColor" stroke-linecap="round" stroke-linejoin="round"/><circle cx="10" cy="10" r="7.833" stroke="currentColor"/></svg><svg viewBox="0 0 19 19" fill="none" id="phone" xmlns="http://www.w3.org/2000/svg"><path d="M17.984 14.257v2.357c.004.901-.857 1.654-1.824 1.572-8.343.006-14.812-6.14-14.806-13.94-.087-.904.709-1.711 1.665-1.712h2.51c.405-.004.799.131 1.107.38.875.707 1.438 3.106 1.221 4.06-.17.745-.967 1.266-1.509 1.775 1.19 1.967 2.925 3.596 5.02 4.714.541-.509 1.096-1.258 1.889-1.417 1.017-.204 3.583.327 4.33 1.156.266.294.407.67.397 1.055z" stroke="currentColor" stroke-width="1.104" stroke-linecap="round" stroke-linejoin="round"/></svg><svg viewBox="0 0 40 40" fill="none" id="play" xmlns="http://www.w3.org/2000/svg"><path d="M24.241 9.56c3.134 1.79 5.414 3.095 7.063 4.23 1.656 1.14 2.515 2.005 2.952 2.853a7.329 7.329 0 0 1 0 6.714c-.437.848-1.296 1.714-2.952 2.853-1.649 1.136-3.93 2.44-7.063 4.23-3.092 1.768-5.343 3.052-7.135 3.886-1.799.837-2.969 1.136-3.916 1.085a7.328 7.328 0 0 1-5.773-3.35c-.514-.797-.835-1.961-1-3.938-.166-1.97-.167-4.562-.167-8.123 0-3.561.001-6.153.166-8.123.166-1.977.487-3.14 1.001-3.938a7.328 7.328 0 0 1 5.773-3.35c.947-.05 2.117.248 3.916 1.085 1.792.833 4.043 2.118 7.135 3.885z" stroke="currentColor" stroke-width="2.5"/></svg><svg viewBox="0 0 24 24" fill="none" id="repeat" xmlns="http://www.w3.org/2000/svg"><path d="M12 4.744a8.5 8.5 0 1 0 6.88 3.506" stroke="currentColor" stroke-width="1.5" stroke-linecap="round"/><path d="m10.493 7.46 2.455-3.057-3.72-1.236" stroke="currentColor" stroke-width="1.5" stroke-linecap="round" stroke-linejoin="round"/></svg><svg viewBox="0 0 20 20" fill="none" id="right-arrow" xmlns="http://www.w3.org/2000/svg"><path d="M5.416 19.166 14.583 10 5.416.833" stroke="currentColor" stroke-width="1.5" stroke-linecap="round" stroke-linejoin="round"/></svg><svg fill="none" viewBox="0 0 128 128" id="thanks-icon" xmlns="http://www.w3.org/2000/svg"><path d="m64 0 21.104 20.177 28.933 3.92-2.617 29.08 14.975 25.064-24.367 16.085-10.26 27.336L64 112.64l-27.769 9.022-10.26-27.336L1.606 78.242 16.58 53.178l-2.616-29.08 28.933-3.92L64 0z" fill="#EAC956"/><path d="m43 61.308 15.214 15.326a3 3 0 0 0 4.456-.22L85 49" stroke="#1D1D1B" stroke-width="5.319"/></svg><svg viewBox="0 0 20 20" fill="none" id="tooltip" xmlns="http://www.w3.org/2000/svg"><path fill="currentColor" d="M10.225 11.7H8.979a4.15 4.15 0 0 1 .069-.756c.045-.215.122-.408.23-.581a2.68 2.68 0 0 1 .439-.513c.153-.136.286-.267.4-.39.114-.124.204-.25.269-.381a1 1 0 0 0 .097-.444c0-.19-.029-.346-.088-.47a.595.595 0 0 0-.253-.287.818.818 0 0 0-.42-.098c-.14 0-.27.03-.391.093a.726.726 0 0 0-.298.273.966.966 0 0 0-.117.489H7.5c.01-.446.112-.814.308-1.104.198-.293.463-.51.796-.65a2.796 2.796 0 0 1 1.118-.214c.455 0 .846.075 1.172.224.325.147.574.363.747.65.172.283.258.628.258 1.035 0 .283-.055.535-.166.757-.11.218-.255.421-.434.61-.18.189-.376.384-.591.586a1.35 1.35 0 0 0-.38.523c-.066.182-.1.398-.103.649zm-1.392 1.51c0-.209.072-.381.215-.518.143-.14.335-.21.576-.21.238 0 .428.07.571.21.147.137.22.31.22.518a.682.682 0 0 1-.22.512c-.143.14-.333.21-.571.21-.24 0-.433-.07-.576-.21a.69.69 0 0 1-.215-.512z"/><circle cx="10" cy="10" r="7.708" stroke="currentColor" stroke-width="1.25"/></svg></svg>