<svg xmlns="http://www.w3.org/2000/svg" xmlns:xlink="http://www.w3.org/1999/xlink"><defs><symbol fill="none" viewBox="0 0 36 36" id="acc-close"><rect width="27.75" height="27.75" x="4.126" y="4.125" stroke="currentColor" stroke-width="2.25" rx="9.427" /><path stroke="currentColor" stroke-linecap="round" stroke-linejoin="round" stroke-width="2.25" d="m21.184 14.818-6.364 6.364m6.364 0-6.364-6.364" /></symbol><symbol fill="none" viewBox="0 0 36 36" id="acc-open"><rect width="27.75" height="27.75" x="4.126" y="4.125" stroke="currentColor" stroke-width="2.25" rx="9.427" /><path stroke="currentColor" stroke-linecap="round" stroke-linejoin="round" stroke-width="2.25" d="M22.502 18h-9m4.5 4.5v-9" /></symbol><symbol fill="none" viewBox="0 0 24 24" id="arrow-right"><path stroke="#1D1D1B" stroke-linecap="round" stroke-linejoin="round" stroke-width="1.5" d="M13.688 6.5 18.5 12l-4.812 5.5" /><path stroke="#1D1D1B" stroke-linecap="round" stroke-width="1.5" d="M18.123 12H5.5" /></symbol><symbol fill="none" viewBox="0 0 20 20" id="attach"><path stroke="currentColor" stroke-linecap="round" stroke-linejoin="round" stroke-width="1.25" d="m4.594 8.56 5.3-5.443 5.3 5.442" /><path stroke="currentColor" stroke-linecap="round" stroke-width="1.25" d="M9.893 3.543v11.168m6.252 2.573h-12.5" /></symbol><symbol fill="none" viewBox="0 0 36 36" id="close"><rect width="27.75" height="27.75" x="4.126" y="4.125" stroke="currentColor" stroke-width="2.25" rx="9.427" /><path stroke="currentColor" stroke-linecap="round" stroke-linejoin="round" stroke-width="2.25" d="m21.185 14.818-6.364 6.364m6.364 0-6.364-6.364" /></symbol><symbol fill="none" viewBox="0 0 20 20" id="download"><path stroke="currentColor" stroke-linecap="round" stroke-linejoin="round" stroke-width="1.25" d="m15.196 9.269-5.3 5.442-5.3-5.442" /><path stroke="currentColor" stroke-linecap="round" stroke-width="1.25" d="M9.896 14.285V3.117m6.25 14.167h-12.5" /></symbol><symbol fill="none" viewBox="0 0 30 30" id="inbox"><rect width="23.125" height="18.125" x="3.438" y="5.938" stroke="currentColor" stroke-width="1.875" rx="4.063" /><path stroke="currentColor" stroke-linecap="round" stroke-width="1.875" d="m5 6.875 6.464 6.464c1.667 1.667 2.5 2.5 3.536 2.5 1.035 0 1.869-.833 3.535-2.5L25 6.875" /><path stroke="currentColor" stroke-width="1.875" d="m11.875 15-7.813 7.813M18.126 15l7.813 7.813" /></symbol><symbol fill="none" viewBox="0 0 12 12" id="linkedin"><path fill="#1D1D1B" d="M1.449.104c.786 0 1.448.662 1.448 1.448 0 .827-.704 1.469-1.448 1.448C.683 3.02 0 2.38 0 1.552-.02.745.642.104 1.45.104Zm.806 11.792H.6a.415.415 0 0 1-.413-.414v-7.24c0-.228.165-.414.393-.414h1.675c.228 0 .414.186.414.413v7.262c0 .207-.186.393-.414.393Zm9.724-5.544c0-1.531-1.138-2.731-2.669-2.731h-.434c-.828 0-1.635.393-2.07 1.034l-.206.207v-.828c0-.082-.124-.206-.207-.206H4.324c-.083 0-.207.082-.207.186v7.717c0 .082.124.165.207.165H6.6c.083 0 .207-.083.207-.165V7.26c0-.765.579-1.406 1.345-1.427.393 0 .744.145 1.013.414.249.248.352.6.352.993v4.448c0 .083.124.207.207.207h2.069c.083 0 .207-.124.207-.207V6.352h-.021Z" /></symbol><symbol fill="none" viewBox="0 0 20 20" id="off"><path stroke="currentColor" stroke-linecap="round" d="m8.232 8.434 3.536 3.536m0-3.536L8.232 11.97" /><circle cx="10" cy="10" r="7.833" stroke="currentColor" /></symbol><symbol fill="none" viewBox="0 0 20 20" id="on"><path stroke="currentColor" stroke-linecap="round" stroke-linejoin="round" d="m7.5 10 1.667 1.667L12.5 8.333" /><circle cx="10" cy="10" r="7.833" stroke="currentColor" /></symbol><symbol fill="none" viewBox="0 0 19 19" id="phone"><path stroke="currentColor" stroke-linecap="round" stroke-linejoin="round" stroke-width="1.104" d="M17.984 14.257v2.357c.004.901-.857 1.654-1.824 1.572-8.343.006-14.812-6.14-14.806-13.94-.087-.904.709-1.711 1.665-1.712h2.51c.405-.004.799.131 1.107.38.875.707 1.438 3.106 1.221 4.06-.17.745-.967 1.266-1.509 1.775 1.19 1.967 2.925 3.596 5.02 4.714.541-.509 1.096-1.258 1.889-1.417 1.017-.204 3.583.327 4.33 1.156.266.294.407.67.397 1.055Z" /></symbol><symbol fill="none" viewBox="0 0 40 40" id="play"><path stroke="currentColor" stroke-width="2.5" d="M24.241 9.56c3.134 1.79 5.414 3.095 7.063 4.23 1.656 1.14 2.515 2.005 2.952 2.853a7.329 7.329 0 0 1 0 6.714c-.437.848-1.296 1.714-2.952 2.853-1.649 1.136-3.93 2.44-7.063 4.23-3.092 1.768-5.343 3.052-7.135 3.886-1.799.837-2.969 1.136-3.916 1.085a7.328 7.328 0 0 1-5.773-3.35c-.514-.797-.835-1.961-1-3.938-.166-1.97-.167-4.562-.167-8.123 0-3.561.001-6.153.166-8.123.166-1.977.487-3.14 1.001-3.938a7.328 7.328 0 0 1 5.773-3.35c.947-.05 2.117.248 3.916 1.085 1.792.833 4.043 2.118 7.135 3.885Z" /></symbol><symbol fill="none" viewBox="0 0 24 24" id="repeat"><path stroke="currentColor" stroke-linecap="round" stroke-width="1.5" d="M12 4.744a8.5 8.5 0 1 0 6.88 3.506" /><path stroke="currentColor" stroke-linecap="round" stroke-linejoin="round" stroke-width="1.5" d="m10.493 7.46 2.455-3.057-3.72-1.236" /></symbol><symbol fill="none" viewBox="0 0 20 20" id="right-arrow"><path stroke="currentColor" stroke-linecap="round" stroke-linejoin="round" stroke-width="1.5" d="M5.416 19.166 14.583 10 5.416.833" /></symbol></defs></svg>