<svg width="128" height="60" fill="none" xmlns="http://www.w3.org/2000/svg"><path d="M120.664 50.817c3.845 0 6.963-3.093 6.963-6.908 0-3.815-3.118-6.907-6.963-6.907-3.846 0-6.963 3.092-6.963 6.907s3.117 6.908 6.963 6.908Z" fill="#FFD100"/><path d="M21.433 28.564v9.038h7.58c-1.108 1.724-3.605 2.642-5.297 2.642-5.706 0-8.558-3.226-8.558-9.736 0-7.188 3.765-10.867 11.24-10.867 2.966 0 6.847.735 11.01 2.038V10.87c-1.198-.51-3.023-.906-5.363-1.303C29.65 9.17 27.538 9 25.711 9c-7.417 0-13.293 1.981-17.686 5.943-4.393 3.963-6.619 9.283-6.619 16.02 0 6.169 1.713 11.036 5.135 14.603C9.964 49.188 14.586 51 20.405 51c5.844 0 11.213-3.009 12.943-6.828l-.037 6.148h8.452V28.564h-20.33ZM45.984 50.32V9.678h13.123v30.056h14.32v10.584H45.984Zm32.231-1.019V38.208c1.94.622 4.223 1.131 6.79 1.585 2.568.453 4.793.68 6.677.68 3.194 0 4.85-.793 4.85-2.209 0-.905-.514-1.359-2.853-1.868l-4.565-1.018c-7.817-1.755-11.468-5.66-11.468-12.283 0-4.36 1.541-7.811 4.565-10.358C85.232 10.245 89.455 9 94.761 9c3.65 0 9.244.735 12.666 1.585V21.17a67.463 67.463 0 0 0-6.446-1.303c-2.568-.396-4.565-.565-6.048-.565-2.795 0-4.393.792-4.393 2.207 0 .849.74 1.416 2.282 1.812l5.306 1.245c7.76 1.811 11.354 5.773 11.354 12.509 0 4.302-1.598 7.698-4.736 10.188C101.608 49.754 97.271 51 91.737 51c-5.25 0-10.555-.736-13.522-1.698Z" fill="#1D1D1B"/></svg>