<svg width="1600" height="226" fill="none" xmlns="http://www.w3.org/2000/svg"><path d="M-166.98 198.545-96.525 7.841A12 12 0 0 1-85.268 0H194.19c7.942 0 13.694 7.577 11.558 15.227l-66.547 238.375a12 12 0 0 1-13.549 8.607l-283.367-47.672c-7.419-1.248-11.873-8.936-9.266-15.992Z" fill="#EAC956"/><path opacity=".4" d="m-136.98 265.545 70.455-190.704A12 12 0 0 1-55.268 67H224.19c7.942 0 13.694 7.577 11.558 15.227l-66.547 238.375a12 12 0 0 1-13.549 8.607l-283.367-47.672c-7.419-1.248-11.873-8.936-9.266-15.992Z" fill="#EAC956"/><path d="M1766.98 198.545 1696.52 7.841A11.994 11.994 0 0 0 1685.27 0h-279.46c-7.94 0-13.69 7.577-11.56 15.227l66.55 238.375a11.997 11.997 0 0 0 13.55 8.607l283.36-47.672c7.42-1.248 11.88-8.936 9.27-15.992Z" fill="#EAC956"/><path opacity=".4" d="m1736.98 265.545-70.46-190.704A11.994 11.994 0 0 0 1655.27 67h-279.46c-7.94 0-13.69 7.577-11.56 15.227l66.55 238.375a11.997 11.997 0 0 0 13.55 8.607l283.36-47.672c7.42-1.248 11.88-8.936 9.27-15.992Z" fill="#EAC956"/></svg>