<svg width="171" height="72" fill="none" xmlns="http://www.w3.org/2000/svg"><path fill-rule="evenodd" clip-rule="evenodd" d="M110.032 56.823c-3.113.87-7.167 1.234-10.641 1.234-9.049 0-14.985-4.717-14.985-13.353 0-8.2 5.574-13.498 13.682-13.498 1.81 0 3.764.217 4.922.798V20.102h7.022v36.721zM103.01 38.1c-1.086-.508-2.606-.799-4.343-.799-4.271 0-7.094 2.613-7.094 7.185 0 4.862 3.04 7.62 8.035 7.62.868 0 2.244 0 3.402-.29V38.1zm64.717 18.723c-3.113.87-7.167 1.234-10.714 1.234-8.976 0-14.985-4.717-14.985-13.353 0-8.2 5.574-13.498 13.682-13.498 1.882 0 3.764.217 4.923.798V20.102h7.094v36.721zM160.633 38.1c-1.086-.508-2.534-.799-4.271-.799-4.344 0-7.167 2.613-7.167 7.185 0 4.862 3.113 7.62 8.108 7.62.868 0 2.171 0 3.33-.29V38.1zm-39.525 0c1.158-.508 2.823-.653 4.198-.653 4.344 0 7.312 2.467 7.312 6.894 0 5.225-3.33 7.62-7.746 7.692v6.024h.362c9.121 0 14.55-5.008 14.55-13.934 0-8.128-5.791-12.917-14.333-12.917-4.343 0-8.614 1.015-11.438 2.177v34.47h7.095V38.1z" fill="#3F3F42"/><path fill-rule="evenodd" clip-rule="evenodd" d="M58.49 14.442l1.158 1.306.652-.363-1.81-.943z" fill="#DC0032"/><path fill-rule="evenodd" clip-rule="evenodd" d="M56.754 13.498l2.244 2.613.796-.436-.868-1.016-2.172-1.16z" fill="#DC0032"/><path fill-rule="evenodd" clip-rule="evenodd" d="M54.943 12.555l3.403 3.919.796-.436-1.955-2.322-2.244-1.161z" fill="#DC0032"/><path fill-rule="evenodd" clip-rule="evenodd" d="M53.207 11.611l4.488 5.226.797-.436-3.113-3.628-2.172-1.162zm8.614 9.217l-.506.29.506.58v-.87z" fill="#DC0032"/><path fill-rule="evenodd" clip-rule="evenodd" d="M51.469 10.668l5.574 6.531.796-.435-4.198-4.935-2.172-1.161zM61.53 20.973l-.796.508 1.085 1.306v-1.379l-.29-.435z" fill="#DC0032"/><path fill-rule="evenodd" clip-rule="evenodd" d="M49.658 9.724l6.733 7.838.868-.435-5.357-6.241-2.244-1.162zm11.22 11.612l-.796.508 1.738 2.032v-1.379l-.941-1.161z" fill="#DC0032"/><path fill-rule="evenodd" clip-rule="evenodd" d="M47.922 8.781l7.89 9.144.797-.435-6.515-7.548-2.172-1.16zm12.306 12.99l-.796.436 2.389 2.83v-1.379l-1.593-1.887z" fill="#DC0032"/><path fill-rule="evenodd" clip-rule="evenodd" d="M46.184 7.838l8.976 10.45.796-.436L48.356 9l-2.172-1.161zm13.392 14.296l-.797.436 3.04 3.555v-1.378l-2.243-2.613z" fill="#DC0032"/><path fill-rule="evenodd" clip-rule="evenodd" d="M44.375 6.894L54.51 18.651l.796-.436-8.687-10.16-2.244-1.16zm14.55 15.603l-.796.435 3.692 4.282v-1.379l-2.896-3.338z" fill="#DC0032"/><path fill-rule="evenodd" clip-rule="evenodd" d="M42.637 5.95l11.22 13.136.796-.508-9.845-11.466-2.171-1.161zm15.636 16.91l-.796.435 4.343 5.08v-1.379l-3.547-4.136z" fill="#DC0032"/><path fill-rule="evenodd" clip-rule="evenodd" d="M40.828 5.007L53.207 19.45l.796-.508L43.073 6.17l-2.245-1.162zm16.867 18.216l-.869.435 4.995 5.806v-1.38l-4.126-4.861z" fill="#DC0032"/><path fill-rule="evenodd" clip-rule="evenodd" d="M39.09 4.064l13.464 15.748.869-.508-12.09-14.079-2.243-1.161zm17.952 19.522l-.796.435 5.574 6.604v-1.451l-4.778-5.588z" fill="#DC0032"/><path fill-rule="evenodd" clip-rule="evenodd" d="M37.353 3.12l14.623 17.055.797-.508L39.525 4.282 37.353 3.12zm19.039 20.828l-.796.436 6.225 7.33v-1.38l-5.429-6.386z" fill="#DC0032"/><path fill-rule="evenodd" clip-rule="evenodd" d="M35.543 2.105l15.78 18.433.797-.509L37.787 3.34l-2.244-1.234zM55.74 24.31l-.797.436 6.877 8.055v-1.379l-6.08-7.112z" fill="#DC0032"/><path fill-rule="evenodd" clip-rule="evenodd" d="M33.807 1.161l16.866 19.74.797-.436-15.42-18.07-2.243-1.234zm21.282 23.513l-.796.436 7.528 8.853v-1.451l-6.732-7.838z" fill="#DC0032"/><path fill-rule="evenodd" clip-rule="evenodd" d="M32.068.29l17.953 20.973.796-.435L34.24 1.45 32.068.291zm22.369 24.747l-.797.435 8.18 9.58v-1.38l-7.383-8.635z" fill="#DC0032"/><path fill-rule="evenodd" clip-rule="evenodd" d="M30.91 0l18.46 21.626.796-.435L32.503.508 32.068.29C31.706.073 31.345 0 30.91 0zm22.875 25.4l-.796.435L61.82 36.14v-1.379L53.785 25.4z" fill="#DC0032"/><path fill-rule="evenodd" clip-rule="evenodd" d="M30.91 0c-.29 0-.58.073-.869.145L48.717 21.99l.87-.436L31.126 0h-.217zm22.296 25.763l-.797.435 9.41 11.103V35.85l-8.613-10.087z" fill="#DC0032"/><path fill-rule="evenodd" clip-rule="evenodd" d="M30.26.073c-.146.072-.363.145-.435.217l-.434.218 18.748 21.844.797-.436L30.259.073zm22.295 26.052l-.796.509L61.82 38.39v-1.379l-9.266-10.886z" fill="#DC0032"/><path fill-rule="evenodd" clip-rule="evenodd" d="M29.535.363l-.797.435 18.75 21.917.795-.436L29.535.363zm22.368 26.125l-.796.508L61.82 39.48V38.1l-9.917-11.61z" fill="#DC0032"/><path fill-rule="evenodd" clip-rule="evenodd" d="M28.884.726l-.796.435 18.749 21.916.796-.435L28.884.726zM51.252 26.85l-.796.508 11.365 13.28V39.26L51.252 26.85z" fill="#DC0032"/><path fill-rule="evenodd" clip-rule="evenodd" d="M28.232 1.089l-.796.435L46.184 23.44l.797-.435L28.23 1.089zM50.6 27.214l-.796.508L61.82 41.728V40.35L50.6 27.214z" fill="#DC0032"/><path fill-rule="evenodd" clip-rule="evenodd" d="M27.58 1.451l-.797.436 18.75 21.916.795-.435L27.58 1.45zm22.368 26.126l-.797.508L61.82 42.817v-1.379L49.948 27.577z" fill="#DC0032"/><path fill-rule="evenodd" clip-rule="evenodd" d="M26.93 1.814l-.797.436 18.749 21.916.796-.435L26.929 1.814zM49.37 27.94l-.796.508 13.247 15.53v-1.379L49.37 27.94z" fill="#DC0032"/><path fill-rule="evenodd" clip-rule="evenodd" d="M26.277 2.105l-.797.508 18.822 21.916.796-.436L26.277 2.105zm22.44 26.27l-.796.436L61.82 45.067v-1.38L48.718 28.376z" fill="#DC0032"/><path fill-rule="evenodd" clip-rule="evenodd" d="M25.626 2.467l-.796.436 18.821 21.989.797-.436L25.626 2.467zm22.441 26.271l-.796.436 14.55 17.054v-1.452L48.067 28.738z" fill="#DC0032"/><path fill-rule="evenodd" clip-rule="evenodd" d="M24.974 2.83l-.796.436 18.821 22.061.796-.508L24.974 2.83zm22.44 26.27l-.796.436 15.202 17.78v-1.379L47.415 29.101z" fill="#DC0032"/><path fill-rule="evenodd" clip-rule="evenodd" d="M24.324 3.193l-.797.436L42.35 25.69l.796-.508L24.324 3.193zm22.44 26.27l-.796.436 15.853 18.506v-1.38l-15.057-17.56z" fill="#DC0032"/><path fill-rule="evenodd" clip-rule="evenodd" d="M23.671 3.556l-.796.435 18.821 22.062.797-.508L23.67 3.556zm22.441 26.27l-.796.436L61.82 49.566v-1.452L46.112 29.828z" fill="#DC0032"/><path fill-rule="evenodd" clip-rule="evenodd" d="M23.019 3.919l-.796.435 18.821 22.062.796-.508-18.82-21.99zm22.513 26.27l-.796.436 17.084 20.03v-1.38L45.532 30.19z" fill="#DC0032"/><path fill-rule="evenodd" clip-rule="evenodd" d="M22.369 4.21l-.869.435 18.966 22.134.796-.508L22.37 4.209zm22.513 26.342l-.796.436L61.82 51.743v-1.379L44.88 30.552z" fill="#DC0032"/><path fill-rule="evenodd" clip-rule="evenodd" d="M21.716 4.572l-.868.435 19.038 22.207a.566.566 0 01.29-.29l.434-.29L21.716 4.572zM44.23 30.915l-.797.436 18.242 21.336c.073-.218.145-.436.145-.654v-.58L44.23 30.915z" fill="#DC0032"/><path fill-rule="evenodd" clip-rule="evenodd" d="M21.066 4.935l-.869.435L39.67 28.085v-.29c0-.218.145-.508.29-.726L21.066 4.935zm22.513 26.343l-.579.363c-.072 0-.145.073-.217.073l18.532 21.698c.217-.29.361-.58.434-.87l-18.17-21.264z" fill="#DC0032"/><path fill-rule="evenodd" clip-rule="evenodd" d="M20.413 5.298l-.868.435 20.124 23.513v-1.451L20.414 5.298zM41.552 31.35l19.256 22.57c.217-.146.434-.436.651-.654L42.927 31.641c-.29.145-.724.145-1.014 0l-.362-.29z" fill="#DC0032"/><path fill-rule="evenodd" clip-rule="evenodd" d="M19.763 5.66l-.869.436 41.262 48.187.58-.29.217-.218-18.966-22.134h-.073l-1.665-1.016c-.144-.073-.217-.218-.362-.363-.144-.218-.144-.363-.217-.508v-.798L19.763 5.66z" fill="#DC0032"/><path fill-rule="evenodd" clip-rule="evenodd" d="M19.11 6.023l-.868.436 41.262 48.187.796-.435L19.11 6.023z" fill="#DC0032"/><path fill-rule="evenodd" clip-rule="evenodd" d="M18.459 6.314l-.87.435 41.335 48.26.796-.436-41.26-48.26z" fill="#DC0032"/><path fill-rule="evenodd" clip-rule="evenodd" d="M17.808 6.677l-.869.435 41.335 48.26.796-.436-41.262-48.26z" fill="#DC0032"/><path fill-rule="evenodd" clip-rule="evenodd" d="M17.156 7.04l-.869.435 41.335 48.26.796-.436-41.262-48.26z" fill="#DC0032"/><path fill-rule="evenodd" clip-rule="evenodd" d="M16.433 7.402l-.796.436L56.97 56.17l.796-.508-41.334-48.26z" fill="#DC0032"/><path fill-rule="evenodd" clip-rule="evenodd" d="M15.78 7.765l-.796.436L56.32 56.532l.796-.508-41.334-48.26z" fill="#DC0032"/><path fill-rule="evenodd" clip-rule="evenodd" d="M15.13 8.128l-.796.435 41.407 48.333.796-.508L15.13 8.128z" fill="#DC0032"/><path fill-rule="evenodd" clip-rule="evenodd" d="M14.478 8.418l-.796.436 41.406 48.404.797-.508L14.478 8.419z" fill="#DC0032"/><path fill-rule="evenodd" clip-rule="evenodd" d="M13.826 8.781l-.797.435 41.407 48.405.796-.435L13.826 8.78z" fill="#DC0032"/><path fill-rule="evenodd" clip-rule="evenodd" d="M13.175 9.144l-.796.435 20.124 23.513.652.436c.29.145.579.508.579.87v.073l20.052 23.513.796-.435L13.175 9.144z" fill="#DC0032"/><path fill-rule="evenodd" clip-rule="evenodd" d="M12.523 9.507l-.796.435L30.62 32.076l2.389 1.307L12.523 9.507zM33.66 34.18c0 .072.073.145.073.218v1.233l19.4 22.715.797-.435L33.66 34.18z" fill="#DC0032"/><path fill-rule="evenodd" clip-rule="evenodd" d="M11.873 9.87l-.797.435L28.74 30.988l2.39 1.306L11.871 9.87zm21.861 25.472v1.379L52.555 58.71l.797-.435-19.618-22.933z" fill="#DC0032"/><path fill-rule="evenodd" clip-rule="evenodd" d="M11.22 10.232l-.796.436 16.505 19.231 2.316 1.306L11.22 10.233zm22.513 26.199v1.451l18.17 21.19.796-.435-18.966-22.206z" fill="#DC0032"/><path fill-rule="evenodd" clip-rule="evenodd" d="M10.57 10.523l-.797.435 15.275 17.853 2.316 1.378L10.57 10.523zm23.164 27.069v1.379l17.519 20.465.796-.436-18.315-21.408z" fill="#DC0032"/><path fill-rule="evenodd" clip-rule="evenodd" d="M9.917 10.886l-.796.435 14.044 16.401 2.316 1.379L9.917 10.886zM33.733 38.68v1.38L50.6 59.797l.797-.435L33.734 38.68z" fill="#DC0032"/><path fill-rule="evenodd" clip-rule="evenodd" d="M9.265 11.248l-.796.436 12.813 15.022 2.316 1.306L9.265 11.248zm24.468 28.52v1.452l16.215 19.014.796-.508-17.011-19.957z" fill="#DC0032"/><path fill-rule="evenodd" clip-rule="evenodd" d="M8.615 11.611l-.797.436 11.583 13.57 2.316 1.307L8.615 11.61zM33.734 40.93v1.379L49.37 60.597l.796-.508L33.734 40.93z" fill="#DC0032"/><path fill-rule="evenodd" clip-rule="evenodd" d="M7.962 11.974l-.796.436 10.352 12.119 2.389 1.306-11.945-13.86zm25.77 30.045v1.378L48.719 60.96l.796-.508-15.781-18.433z" fill="#DC0032"/><path fill-rule="evenodd" clip-rule="evenodd" d="M7.312 12.337l-.796.436 9.12 10.667 2.39 1.38L7.312 12.336zM26.278 35.85l1.882 2.177v-.798c0-.145-.145-.363-.29-.436l-1.592-.943zm7.456 7.257v1.452l14.333 16.763.796-.508-15.129-17.707z" fill="#DB0032"/><path fill-rule="evenodd" clip-rule="evenodd" d="M6.66 12.627l-.797.436 7.89 9.289 2.39 1.379L6.66 12.627zm17.735 22.134l3.764 4.355v-1.38l-1.375-1.596-2.389-1.379zm9.338 9.507v1.38l13.682 16.037.796-.435-14.478-16.982z" fill="#DC0032"/><path fill-rule="evenodd" clip-rule="evenodd" d="M6.01 12.99l-.797.436 6.732 7.91 2.317 1.306-8.253-9.652zm16.504 20.755l5.646 6.532v-1.379l-3.257-3.846-2.39-1.307zm11.22 11.612v1.379l13.03 15.312.797-.435-13.827-16.256z" fill="#DC0032"/><path fill-rule="evenodd" clip-rule="evenodd" d="M5.357 13.353l-.796.436 5.501 6.458 2.317 1.306-7.022-8.2zm15.346 19.304l7.457 8.708v-1.378l-5.14-6.024-2.317-1.306zm13.03 13.86v1.38L46.184 62.41l.797-.436-13.248-15.457z" fill="#DC0032"/><path fill-rule="evenodd" clip-rule="evenodd" d="M4.704 13.716l-.796.435L8.18 19.16l2.317 1.306-5.792-6.75zM18.82 31.568l9.339 10.886v-1.379l-7.022-8.128-2.317-1.379zm14.913 16.038v1.38l11.8 13.788.795-.436-12.595-14.732z" fill="#DC0032"/><path fill-rule="evenodd" clip-rule="evenodd" d="M4.054 14.079l-.796.435 3.04 3.556 2.317 1.38-4.56-5.371zm12.885 16.4l11.22 13.136v-1.379L19.257 31.86l-2.317-1.38zm16.795 18.216v1.379l11.148 13.063.796-.436-11.944-14.006z" fill="#DC0032"/><path fill-rule="evenodd" clip-rule="evenodd" d="M3.402 14.442l-.797.435 1.81 2.105 2.39 1.378-3.403-3.918zm11.654 15.022l13.103 15.24v-1.38L17.373 30.77l-2.317-1.306zm18.677 20.392v1.379L44.23 63.499l.796-.435-11.293-13.208z" fill="#DC0032"/><path fill-rule="evenodd" clip-rule="evenodd" d="M2.751 14.732l-.868.435.651.799 2.39 1.306-2.173-2.54zm10.425 13.643l14.984 17.49v-1.452L15.564 29.682l-2.388-1.307zm20.558 22.57v1.379l9.845 11.61.797-.507-10.642-12.482z" fill="#DC0032"/><path fill-rule="evenodd" clip-rule="evenodd" d="M2.099 15.095l-.507.29 1.448.798-.941-1.088zm9.193 12.192l16.867 19.666v-1.378L13.68 28.665l-2.389-1.378zm22.44 24.746v1.452L43 64.298l.796-.508-10.062-11.757z" fill="#DC0032"/><path fill-rule="evenodd" clip-rule="evenodd" d="M9.482 26.198L28.16 48.042v-1.379L11.8 27.577l-2.317-1.379zm24.25 26.996v1.38l8.615 10.087.797-.508-9.411-10.959z" fill="#DC0032"/><path fill-rule="evenodd" clip-rule="evenodd" d="M7.602 25.182L28.16 49.203v-1.451L9.918 26.488l-2.316-1.306zm26.132 29.101v1.379l7.963 9.361.796-.507-8.759-10.233z" fill="#DC0032"/><path fill-rule="evenodd" clip-rule="evenodd" d="M5.719 24.093l22.44 26.199v-1.38L8.036 25.4 5.72 24.094zm28.014 31.279v1.451l7.312 8.563.796-.435-8.108-9.58z" fill="#DC0032"/><path fill-rule="evenodd" clip-rule="evenodd" d="M3.836 23.005L28.159 51.38v-1.379L6.152 24.384l-2.316-1.38zm29.897 33.528v1.379l6.66 7.837.796-.435-7.456-8.781z" fill="#DB0032"/><path fill-rule="evenodd" clip-rule="evenodd" d="M1.955 21.916L28.16 52.541v-1.378L4.272 23.295l-2.317-1.379zm31.779 35.705v1.38l6.08 7.111.797-.435-6.877-8.056z" fill="#DA0032"/><path fill-rule="evenodd" clip-rule="evenodd" d="M.072 20.9L28.16 53.63v-1.38L2.461 22.207.072 20.9zm33.661 37.81v1.451l5.43 6.314.796-.435-6.226-7.33z" fill="#D90032"/><path fill-rule="evenodd" clip-rule="evenodd" d="M0 20.828v1.016l28.16 32.874V53.34L.58 21.118l-.58-.29zM33.733 59.87v.87a.559.559 0 01-.144.364l4.922 5.733.796-.436-5.574-6.531z" fill="#D80032"/><path fill-rule="evenodd" clip-rule="evenodd" d="M0 21.553v1.452L28.16 55.88V54.5L0 21.554zM33.661 60.96c-.072.29-.29.581-.507.654l-.072.072 4.778 5.516.796-.436-4.995-5.806z" fill="#D70032"/><path fill-rule="evenodd" clip-rule="evenodd" d="M0 22.715v1.378l28.16 32.875V55.59L0 22.715zM33.227 61.54c0 .073 0 .073-.073.073l-.724.435 4.778 5.516.797-.436-4.778-5.588z" fill="#D60032"/><path fill-rule="evenodd" clip-rule="evenodd" d="M0 23.803v1.38l28.16 32.874v-1.38L0 23.804zm32.648 38.1l-.869.508 4.85 5.588.796-.508-4.777-5.588z" fill="#D50032"/><path fill-rule="evenodd" clip-rule="evenodd" d="M0 24.964v1.38l28.16 32.874v-1.379L0 24.964zm31.996 37.302l-.506.29c-.145.073-.29.073-.435.073l4.922 5.733.797-.508-4.778-5.588z" fill="#D40032"/><path fill-rule="evenodd" clip-rule="evenodd" d="M0 26.053v1.379l28.16 32.874v-1.378L0 26.053zm29.752 36.213l5.574 6.459.796-.508-4.85-5.588c-.072 0-.217.072-.29.072h-.072c-.217 0-.362-.072-.506-.145l-.652-.29z" fill="#D30032"/><path fill-rule="evenodd" clip-rule="evenodd" d="M0 27.142v1.45l34.675 40.496.796-.508-5.212-6.096-1.593-.871c-.29-.145-.506-.508-.506-.871v-.726L0 27.142z" fill="#D20032"/><path fill-rule="evenodd" clip-rule="evenodd" d="M0 28.303v1.378l34.023 39.77.796-.436L0 28.303z" fill="#D10032"/><path fill-rule="evenodd" clip-rule="evenodd" d="M0 29.391v1.38l33.371 39.042.797-.435L0 29.39z" fill="#D00032"/><path fill-rule="evenodd" clip-rule="evenodd" d="M0 30.48v1.451l32.792 38.245.797-.435L0 30.48z" fill="#CF0032"/><path fill-rule="evenodd" clip-rule="evenodd" d="M0 31.641v1.379l32.141 37.519.796-.436L0 31.641z" fill="#CE0032"/><path fill-rule="evenodd" clip-rule="evenodd" d="M0 32.73v1.378L31.417 70.83l.652-.217.217-.146L0 32.73z" fill="#CD0032"/><path fill-rule="evenodd" clip-rule="evenodd" d="M0 33.818v1.451l30.476 35.56h.434c.218 0 .435 0 .652-.072L0 33.818z" fill="#CC0032"/><path fill-rule="evenodd" clip-rule="evenodd" d="M0 34.98v1.378l28.811 33.673 1.014.58c.217.146.579.218.868.218L0 34.98z" fill="#CB0032"/><path fill-rule="evenodd" clip-rule="evenodd" d="M0 36.068v1.379l26.929 31.495 2.389 1.38L0 36.067z" fill="#CA0032"/><path fill-rule="evenodd" clip-rule="evenodd" d="M0 37.229v1.379l25.047 29.246 2.389 1.379L0 37.229z" fill="#C90032"/><path fill-rule="evenodd" clip-rule="evenodd" d="M0 38.317v1.38l23.165 27.068 2.316 1.38L0 38.316z" fill="#C80033"/><path fill-rule="evenodd" clip-rule="evenodd" d="M0 39.406v1.379l21.282 24.892 2.317 1.378L0 39.406z" fill="#C70033"/><path fill-rule="evenodd" clip-rule="evenodd" d="M0 40.567v1.379l19.328 22.57 2.389 1.378L0 40.567z" fill="#C60033"/><path fill-rule="evenodd" clip-rule="evenodd" d="M0 41.656v1.379l17.446 20.392 2.389 1.379L0 41.656z" fill="#C50033"/><path fill-rule="evenodd" clip-rule="evenodd" d="M0 42.744v1.38l15.564 18.214 2.389 1.38L0 42.743z" fill="#C40033"/><path fill-rule="evenodd" clip-rule="evenodd" d="M0 43.905v1.38L13.682 61.25l2.388 1.379L0 43.905z" fill="#C30033"/><path fill-rule="evenodd" clip-rule="evenodd" d="M0 44.994v1.379L11.8 60.16l2.388 1.38L0 44.993z" fill="#C20033"/><path fill-rule="evenodd" clip-rule="evenodd" d="M0 46.083v1.45l9.917 11.54 2.317 1.379L0 46.082z" fill="#C10033"/><path fill-rule="evenodd" clip-rule="evenodd" d="M0 47.244v1.379l7.963 9.361 2.389 1.379L0 47.243z" fill="#C00033"/><path fill-rule="evenodd" clip-rule="evenodd" d="M0 48.332v1.379l6.08 7.185 2.39 1.306L0 48.332z" fill="#BF0033"/><path fill-rule="evenodd" clip-rule="evenodd" d="M0 49.42v1.452l4.199 4.862 2.388 1.38L0 49.42z" fill="#BE0033"/><path fill-rule="evenodd" clip-rule="evenodd" d="M0 50.582v1.379l2.316 2.685 2.39 1.379L0 50.582z" fill="#BD0033"/><path fill-rule="evenodd" clip-rule="evenodd" d="M0 51.67v.363c0 .726.507 1.597 1.086 1.96l1.737.943L0 51.67z" fill="#BC0033"/><path fill-rule="evenodd" clip-rule="evenodd" d="M.434 53.34c.144.145.217.29.362.362l-.362-.362z" fill="#B03"/></svg>