<svg width="171" height="72" viewBox="0 0 171 72" fill="none" xmlns="http://www.w3.org/2000/svg">
<path fill-rule="evenodd" clip-rule="evenodd" d="M110.032 56.823C106.919 57.6939 102.865 58.0567 99.3906 58.0567C90.3421 58.0567 84.4062 53.3396 84.4062 44.7037C84.4062 36.5031 89.9802 31.2055 98.0876 31.2055C99.8973 31.2055 101.852 31.4232 103.01 32.0038V20.1021H110.032V56.823ZM103.01 38.0997C101.924 37.5917 100.404 37.3014 98.6667 37.3014C94.396 37.3014 91.5728 39.914 91.5728 44.486C91.5728 49.3482 94.6131 52.1059 99.6078 52.1059C100.476 52.1059 101.852 52.1059 103.01 51.8156V38.0997ZM167.727 56.823C164.614 57.6939 160.56 58.0567 157.013 58.0567C148.037 58.0567 142.028 53.3396 142.028 44.7037C142.028 36.5031 147.602 31.2055 155.71 31.2055C157.592 31.2055 159.474 31.4232 160.633 32.0038V20.1021H167.727V56.823ZM160.633 38.0997C159.547 37.5917 158.099 37.3014 156.362 37.3014C152.018 37.3014 149.195 39.914 149.195 44.486C149.195 49.3482 152.308 52.1059 157.303 52.1059C158.171 52.1059 159.474 52.1059 160.633 51.8156V38.0997ZM121.108 38.0997C122.266 37.5917 123.931 37.4466 125.306 37.4466C129.65 37.4466 132.618 39.914 132.618 44.3408C132.618 49.5659 129.288 51.9607 124.872 52.0333V58.0567H125.234C134.355 58.0567 139.784 53.0493 139.784 44.1231C139.784 35.9951 133.993 31.2055 125.451 31.2055C121.108 31.2055 116.837 32.2215 114.013 33.3826V67.8538H121.108V38.0997Z" fill="#3F3F42"/>
<path fill-rule="evenodd" clip-rule="evenodd" d="M58.4902 14.4416L59.6484 15.7479L60.2999 15.385L58.4902 14.4416Z" fill="#DC0032"/>
<path fill-rule="evenodd" clip-rule="evenodd" d="M56.7539 13.4982L58.9979 16.1108L59.7942 15.6753L58.9255 14.6593L56.7539 13.4982Z" fill="#DC0032"/>
<path fill-rule="evenodd" clip-rule="evenodd" d="M54.9434 12.5547L58.3457 16.4736L59.1419 16.0382L57.1874 13.7159L54.9434 12.5547Z" fill="#DC0032"/>
<path fill-rule="evenodd" clip-rule="evenodd" d="M53.207 11.6113L57.6952 16.8365L58.4915 16.401L55.3787 12.7725L53.207 11.6113ZM61.8213 20.8278L61.3146 21.1181L61.8213 21.6987V20.8278Z" fill="#DC0032"/>
<path fill-rule="evenodd" clip-rule="evenodd" d="M51.4688 10.6679L57.0428 17.1993L57.8391 16.7639L53.6405 11.829L51.4688 10.6679ZM61.5309 20.973L60.7346 21.481L61.8204 22.7872V21.4084L61.5309 20.973Z" fill="#DC0032"/>
<path fill-rule="evenodd" clip-rule="evenodd" d="M49.6582 9.72449L56.3905 17.5622L57.2592 17.1268L51.9023 10.8856L49.6582 9.72449ZM60.8786 21.3358L60.0823 21.8438L61.8196 23.8758V22.497L60.8786 21.3358Z" fill="#DC0032"/>
<path fill-rule="evenodd" clip-rule="evenodd" d="M47.9219 8.78107L55.8124 17.925L56.6087 17.4896L50.0936 9.94218L47.9219 8.78107ZM60.2281 21.7712L59.4318 22.2067L61.8207 25.0369V23.6581L60.2281 21.7712Z" fill="#DC0032"/>
<path fill-rule="evenodd" clip-rule="evenodd" d="M46.1836 7.83765L55.16 18.2879L55.9562 17.8525L48.3553 8.99878L46.1836 7.83765ZM59.5757 22.1341L58.7794 22.5695L61.8197 26.1255V24.7467L59.5757 22.1341Z" fill="#DC0032"/>
<path fill-rule="evenodd" clip-rule="evenodd" d="M44.375 6.89423L54.5095 18.6508L55.3058 18.2153L46.619 8.05536L44.375 6.89423ZM58.9252 22.4969L58.129 22.9324L61.8208 27.2141V25.8352L58.9252 22.4969Z" fill="#DC0032"/>
<path fill-rule="evenodd" clip-rule="evenodd" d="M42.6367 5.95081L53.8571 19.0862L54.6534 18.5782L44.8084 7.11195L42.6367 5.95081ZM58.2729 22.8598L57.4766 23.2952L61.8199 28.3752V26.9964L58.2729 22.8598Z" fill="#DC0032"/>
<path fill-rule="evenodd" clip-rule="evenodd" d="M40.8281 5.00739L53.2067 19.449L54.003 18.941L43.0722 6.16852L40.8281 5.00739ZM57.6949 23.2227L56.8262 23.6581L61.821 29.4638V28.0849L57.6949 23.2227Z" fill="#DC0032"/>
<path fill-rule="evenodd" clip-rule="evenodd" d="M39.0898 4.06396L52.5543 19.8118L53.423 19.3039L41.3339 5.2251L39.0898 4.06396ZM57.0425 23.5855L56.2462 24.0209L61.8201 30.6249V29.1735L57.0425 23.5855Z" fill="#DC0032"/>
<path fill-rule="evenodd" clip-rule="evenodd" d="M37.3535 3.12054L51.9762 20.1747L52.7725 19.6667L39.5252 4.28168L37.3535 3.12054ZM56.392 23.9484L55.5957 24.3838L61.8211 31.7135V30.3347L56.392 23.9484Z" fill="#DC0032"/>
<path fill-rule="evenodd" clip-rule="evenodd" d="M35.543 2.10455L51.3239 20.5375L52.1202 20.0295L37.7871 3.33826L35.543 2.10455ZM55.7397 24.3112L54.9434 24.7467L61.8203 32.802V31.4232L55.7397 24.3112Z" fill="#DC0032"/>
<path fill-rule="evenodd" clip-rule="evenodd" d="M33.8066 1.16113L50.6734 20.9004L51.4697 20.465L36.0507 2.39484L33.8066 1.16113ZM55.0892 24.6741L54.2929 25.1095L61.8214 33.9631V32.5118L55.0892 24.6741Z" fill="#DC0032"/>
<path fill-rule="evenodd" clip-rule="evenodd" d="M32.0684 0.290283L50.0209 21.2632L50.8172 20.8278L34.24 1.45142L32.0684 0.290283ZM54.4367 25.0369L53.6404 25.4724L61.8204 35.0517V33.6729L54.4367 25.0369Z" fill="#DC0032"/>
<path fill-rule="evenodd" clip-rule="evenodd" d="M30.9102 0L49.3694 21.6261L50.1657 21.1907L32.5027 0.507996L32.0684 0.290284C31.7064 0.0725709 31.3445 0 30.9102 0ZM53.7852 25.3998L52.9889 25.8352L61.8204 36.1403V34.7614L53.7852 25.3998Z" fill="#DC0032"/>
<path fill-rule="evenodd" clip-rule="evenodd" d="M30.9097 0C30.6201 0 30.3306 0.0725709 30.041 0.145142L48.7174 21.9889L49.5861 21.5535L31.1269 0C31.0545 0 30.9821 0 30.9097 0ZM53.2056 25.7627L52.4093 26.1981L61.8199 37.3014V35.85L53.2056 25.7627Z" fill="#DC0032"/>
<path fill-rule="evenodd" clip-rule="evenodd" d="M30.2593 0.0725708C30.1145 0.145142 29.8974 0.217712 29.825 0.290284L29.3906 0.507996L48.1394 22.3518L48.9357 21.9164L30.2593 0.0725708ZM52.5552 26.1255L51.7589 26.6335L61.8211 38.39V37.0111L52.5552 26.1255Z" fill="#DC0032"/>
<path fill-rule="evenodd" clip-rule="evenodd" d="M29.5346 0.362854L28.7383 0.79828L47.4871 22.7147L48.2834 22.2792L29.5346 0.362854ZM51.9029 26.4884L51.1066 26.9964L61.8202 39.4786V38.0997L51.9029 26.4884Z" fill="#DC0032"/>
<path fill-rule="evenodd" clip-rule="evenodd" d="M28.8842 0.725708L28.0879 1.16113L46.8367 23.0775L47.633 22.6421L28.8842 0.725708ZM51.2525 26.8512L50.4562 27.3592L61.8213 40.6397V39.2609L51.2525 26.8512Z" fill="#DC0032"/>
<path fill-rule="evenodd" clip-rule="evenodd" d="M28.2318 1.08856L27.4355 1.52399L46.1844 23.4404L46.9807 23.0049L28.2318 1.08856ZM50.6002 27.2141L49.8039 27.7221L61.8205 41.7283V40.3494L50.6002 27.2141Z" fill="#DC0032"/>
<path fill-rule="evenodd" clip-rule="evenodd" d="M27.5795 1.45142L26.7832 1.88684L45.5321 23.8032L46.3283 23.3678L27.5795 1.45142ZM49.9478 27.5769L49.1515 28.0849L61.8197 42.8169V41.438L49.9478 27.5769Z" fill="#DC0032"/>
<path fill-rule="evenodd" clip-rule="evenodd" d="M26.9291 1.81427L26.1328 2.24969L44.8817 24.1661L45.6779 23.7307L26.9291 1.81427ZM49.3698 27.9398L48.5735 28.4478L61.8208 43.978V42.5991L49.3698 27.9398Z" fill="#DC0032"/>
<path fill-rule="evenodd" clip-rule="evenodd" d="M26.2768 2.10455L25.4805 2.61255L44.3018 24.5289L45.0981 24.0935L26.2768 2.10455ZM48.7175 28.3752L47.9212 28.8107L61.82 45.0666V43.6877L48.7175 28.3752Z" fill="#DC0032"/>
<path fill-rule="evenodd" clip-rule="evenodd" d="M25.6264 2.46741L24.8301 2.90284L43.6514 24.8918L44.4477 24.4564L25.6264 2.46741ZM48.0671 28.7381L47.2708 29.1735L61.8211 46.2276V44.7763L48.0671 28.7381Z" fill="#DC0032"/>
<path fill-rule="evenodd" clip-rule="evenodd" d="M24.974 2.83026L24.1777 3.26569L42.999 25.3272L43.7953 24.8192L24.974 2.83026ZM47.4147 29.1009L46.6184 29.5364L61.8202 47.3162V45.9373L47.4147 29.1009Z" fill="#DC0032"/>
<path fill-rule="evenodd" clip-rule="evenodd" d="M24.3236 3.19312L23.5273 3.62853L42.3486 25.6901L43.1449 25.1821L24.3236 3.19312ZM46.7643 29.4638L45.968 29.8992L61.8214 48.4048V47.0259L46.7643 29.4638Z" fill="#DC0032"/>
<path fill-rule="evenodd" clip-rule="evenodd" d="M23.6713 3.55597L22.875 3.9914L41.6963 26.0529L42.4926 25.5449L23.6713 3.55597ZM46.112 29.8267L45.3158 30.2621L61.8205 49.5659V48.1145L46.112 29.8267Z" fill="#DC0032"/>
<path fill-rule="evenodd" clip-rule="evenodd" d="M23.0189 3.91882L22.2227 4.35425L41.044 26.4158L41.8403 25.9078L23.0189 3.91882ZM45.5321 30.1895L44.7358 30.6249L61.8197 50.6545V49.2756L45.5321 30.1895Z" fill="#DC0032"/>
<path fill-rule="evenodd" clip-rule="evenodd" d="M22.3687 4.20911L21.5 4.64453L40.4661 26.7787L41.2624 26.2707L22.3687 4.20911ZM44.8819 30.5524L44.0856 30.9878L61.8209 51.743V50.3642L44.8819 30.5524Z" fill="#DC0032"/>
<path fill-rule="evenodd" clip-rule="evenodd" d="M21.7163 4.57196L20.8477 5.00738L39.8861 27.2141C39.9585 27.0689 40.0309 26.9964 40.1757 26.9238L40.61 26.6335L21.7163 4.57196ZM44.2295 30.9152L43.4332 31.3507L61.6753 52.6865C61.7477 52.4688 61.8201 52.251 61.8201 52.0333V51.4528L44.2295 30.9152Z" fill="#DC0032"/>
<path fill-rule="evenodd" clip-rule="evenodd" d="M21.0659 4.93481L20.1973 5.37024L39.6701 28.0849V27.7947C39.6701 27.5769 39.8148 27.2867 39.9597 27.0689L21.0659 4.93481ZM43.5791 31.2781L43 31.6409C42.9276 31.6409 42.8552 31.7135 42.7828 31.7135L61.3145 53.4122C61.5317 53.1219 61.6764 52.8316 61.7488 52.5413L43.5791 31.2781Z" fill="#DC0032"/>
<path fill-rule="evenodd" clip-rule="evenodd" d="M20.4135 5.29767L19.5449 5.7331L39.6691 29.2461V27.7947L20.4135 5.29767ZM41.5513 31.3507L60.8068 53.9202C61.024 53.775 61.2412 53.4847 61.4584 53.267L42.9267 31.6409C42.6371 31.7861 42.2028 31.7861 41.9132 31.6409L41.5513 31.3507Z" fill="#DC0032"/>
<path fill-rule="evenodd" clip-rule="evenodd" d="M19.7631 5.66052L18.8945 6.09594L60.1564 54.283L60.7356 53.9927C60.808 53.9202 60.8803 53.8476 60.9527 53.775L41.9867 31.6409H41.9143L40.2494 30.6249C40.1046 30.5524 40.0322 30.4072 39.8874 30.2621C39.7427 30.0444 39.7427 29.8992 39.6703 29.7541V28.9558L19.7631 5.66052Z" fill="#DC0032"/>
<path fill-rule="evenodd" clip-rule="evenodd" d="M19.1109 6.02338L18.2422 6.4588L59.5041 54.6459L60.3004 54.2105L19.1109 6.02338Z" fill="#DC0032"/>
<path fill-rule="evenodd" clip-rule="evenodd" d="M18.4585 6.31366L17.5898 6.74909L58.9242 55.0088L59.7204 54.5733L18.4585 6.31366Z" fill="#DC0032"/>
<path fill-rule="evenodd" clip-rule="evenodd" d="M17.8081 6.67651L16.9395 7.11194L58.2739 55.3716L59.07 54.9362L17.8081 6.67651Z" fill="#DC0032"/>
<path fill-rule="evenodd" clip-rule="evenodd" d="M17.1558 7.03937L16.2871 7.47479L57.6215 55.7345L58.4178 55.299L17.1558 7.03937Z" fill="#DC0032"/>
<path fill-rule="evenodd" clip-rule="evenodd" d="M16.433 7.40222L15.6367 7.83765L56.9711 56.1699L57.7674 55.6619L16.433 7.40222Z" fill="#DC0032"/>
<path fill-rule="evenodd" clip-rule="evenodd" d="M15.7807 7.76508L14.9844 8.2005L56.3188 56.5327L57.1151 56.0247L15.7807 7.76508Z" fill="#DC0032"/>
<path fill-rule="evenodd" clip-rule="evenodd" d="M15.1303 8.12793L14.334 8.56335L55.7408 56.8956L56.5371 56.3876L15.1303 8.12793Z" fill="#DC0032"/>
<path fill-rule="evenodd" clip-rule="evenodd" d="M14.4779 8.41821L13.6816 8.85363L55.0884 57.2585L55.8847 56.7505L14.4779 8.41821Z" fill="#DC0032"/>
<path fill-rule="evenodd" clip-rule="evenodd" d="M13.8256 8.78107L13.0293 9.21649L54.4361 57.6213L55.2324 57.1859L13.8256 8.78107Z" fill="#DC0032"/>
<path fill-rule="evenodd" clip-rule="evenodd" d="M13.1752 9.14392L12.3789 9.57935L32.5032 33.0923L33.1546 33.5277C33.4442 33.6728 33.7338 34.0357 33.7338 34.3986V34.4711L53.7857 57.9842L54.582 57.5488L13.1752 9.14392Z" fill="#DC0032"/>
<path fill-rule="evenodd" clip-rule="evenodd" d="M12.5229 9.50677L11.7266 9.94217L30.6203 32.0764L33.009 33.3826L12.5229 9.50677ZM33.6605 34.1808C33.6605 34.2534 33.7329 34.326 33.7329 34.3986V35.6323L53.1334 58.347L53.9296 57.9116L33.6605 34.1808Z" fill="#DC0032"/>
<path fill-rule="evenodd" clip-rule="evenodd" d="M11.8725 9.86963L11.0762 10.3051L28.7392 30.9878L31.1281 32.2941L11.8725 9.86963ZM33.734 35.342V36.7209L52.5554 58.7099L53.3516 58.2745L33.734 35.342Z" fill="#DC0032"/>
<path fill-rule="evenodd" clip-rule="evenodd" d="M11.2201 10.2325L10.4238 10.6679L26.9286 29.8992L29.2451 31.2055L11.2201 10.2325ZM33.7332 36.4306V37.882L51.903 59.0727L52.6993 58.6373L33.7332 36.4306Z" fill="#DC0032"/>
<path fill-rule="evenodd" clip-rule="evenodd" d="M10.5697 10.5228L9.77344 10.9582L25.0476 28.8107L27.3641 30.1895L10.5697 10.5228ZM33.7343 37.5917V38.9706L51.2526 59.4355L52.0489 59.0001L33.7343 37.5917Z" fill="#DC0032"/>
<path fill-rule="evenodd" clip-rule="evenodd" d="M9.91736 10.8856L9.12109 11.321L23.1646 27.7221L25.4811 29.101L9.91736 10.8856ZM33.7335 38.6803V40.0591L50.6002 59.7984L51.3965 59.3629L33.7335 38.6803Z" fill="#DC0032"/>
<path fill-rule="evenodd" clip-rule="evenodd" d="M9.26503 11.2485L8.46875 11.6839L21.2816 26.7061L23.5981 28.0124L9.26503 11.2485ZM33.7326 39.7689V41.2203L49.9479 60.2338L50.7442 59.7258L33.7326 39.7689Z" fill="#DC0032"/>
<path fill-rule="evenodd" clip-rule="evenodd" d="M8.61464 11.6113L7.81836 12.0468L19.4007 25.6175L21.7171 26.9238L8.61464 11.6113ZM33.7337 40.93V42.3088L49.3699 60.5967L50.1662 60.0887L33.7337 40.93Z" fill="#DC0032"/>
<path fill-rule="evenodd" clip-rule="evenodd" d="M7.9623 11.9742L7.16602 12.4096L17.5177 24.5289L19.9065 25.8352L7.9623 11.9742ZM33.7329 42.0186V43.3974L48.7175 60.9595L49.5138 60.4515L33.7329 42.0186Z" fill="#DC0032"/>
<path fill-rule="evenodd" clip-rule="evenodd" d="M7.31191 12.337L6.51562 12.7725L15.6367 23.4404L18.0256 24.8192L7.31191 12.337ZM26.278 35.85L28.1601 38.0271V37.2288C28.1601 37.0837 28.0153 36.866 27.8705 36.7934L26.278 35.85ZM33.734 43.1071V44.5586L48.0671 61.3224L48.8634 60.8144L33.734 43.1071Z" fill="#DB0032"/>
<path fill-rule="evenodd" clip-rule="evenodd" d="M6.65956 12.6273L5.86328 13.0627L13.7537 22.3518L16.1426 23.7307L6.65956 12.6273ZM24.395 34.7614L28.1592 39.1157V37.7368L26.7838 36.1403L24.395 34.7614ZM33.7332 44.2683V45.6471L47.4148 61.6852L48.2111 61.2498L33.7332 44.2683Z" fill="#DC0032"/>
<path fill-rule="evenodd" clip-rule="evenodd" d="M6.00917 12.9902L5.21289 13.4256L11.9451 21.3358L14.2616 22.6421L6.00917 12.9902ZM22.5139 33.7454L28.1604 40.2768V38.898L24.9028 35.0517L22.5139 33.7454ZM33.7343 45.3568V46.7356L46.7644 62.0481L47.5607 61.6126L33.7343 45.3568Z" fill="#DC0032"/>
<path fill-rule="evenodd" clip-rule="evenodd" d="M5.35683 13.3531L4.56055 13.7885L10.0621 20.2472L12.3786 21.5535L5.35683 13.3531ZM20.7034 32.657L28.1595 41.3654V39.9866L23.0198 33.9632L20.7034 32.657ZM33.7335 46.5179V47.8968L46.1844 62.411L46.9807 61.9755L33.7335 46.5179Z" fill="#DC0032"/>
<path fill-rule="evenodd" clip-rule="evenodd" d="M4.70448 13.7159L3.9082 14.1513L8.17918 19.1588L10.4956 20.465L4.70448 13.7159ZM18.8205 31.5684L28.1587 42.454V41.0751L21.1369 32.9471L18.8205 31.5684ZM33.7326 47.6065V48.9853L45.5322 62.7738L46.3284 62.3384L33.7326 47.6065Z" fill="#DC0032"/>
<path fill-rule="evenodd" clip-rule="evenodd" d="M4.05409 14.0788L3.25781 14.5142L6.29816 18.0702L8.61462 19.4491L4.05409 14.0788ZM16.9394 30.4798L28.1598 43.6151V42.2363L19.2559 31.8587L16.9394 30.4798ZM33.7337 48.695V50.0739L44.8818 63.1367L45.678 62.7012L33.7337 48.695Z" fill="#DC0032"/>
<path fill-rule="evenodd" clip-rule="evenodd" d="M3.40175 14.4416L2.60547 14.877L4.41521 16.9816L6.80406 18.3605L3.40175 14.4416ZM15.0565 29.4638L28.159 44.7037V43.3249L17.373 30.7701L15.0565 29.4638ZM33.7329 49.8562V51.235L44.2295 63.4995L45.0257 63.0641L33.7329 49.8562Z" fill="#DC0032"/>
<path fill-rule="evenodd" clip-rule="evenodd" d="M2.75148 14.7319L1.88281 15.1673L2.53431 15.9656L4.92316 17.2719L2.75148 14.7319ZM13.1756 28.3752L28.1602 45.8648V44.4134L15.5644 29.6815L13.1756 28.3752ZM33.7341 50.9448V52.3236L43.5792 63.9349L44.3755 63.4269L33.7341 50.9448Z" fill="#DC0032"/>
<path fill-rule="evenodd" clip-rule="evenodd" d="M2.09852 15.0948L1.5918 15.385L3.03959 16.1833L2.09852 15.0948ZM11.292 27.2867L28.1587 46.9533V45.5746L13.6808 28.6655L11.292 27.2867ZM33.7327 52.0333V53.4848L42.9986 64.2978L43.7949 63.7898L33.7327 52.0333Z" fill="#DC0032"/>
<path fill-rule="evenodd" clip-rule="evenodd" d="M9.48242 26.1981L28.1589 48.0419V46.663L11.7989 27.5769L9.48242 26.1981ZM33.7329 53.1945V54.5733L42.3473 64.6607L43.1436 64.1527L33.7329 53.1945Z" fill="#DC0032"/>
<path fill-rule="evenodd" clip-rule="evenodd" d="M7.60156 25.1821L28.1602 49.203V47.7516L9.918 26.4884L7.60156 25.1821ZM33.7341 54.283V55.6619L41.697 65.0235L42.4933 64.5155L33.7341 54.283Z" fill="#DC0032"/>
<path fill-rule="evenodd" clip-rule="evenodd" d="M5.71875 24.0935L28.1595 50.2916V48.9127L8.03521 25.3998L5.71875 24.0935ZM33.7334 55.3716V56.823L41.0448 65.3864L41.8411 64.9509L33.7334 55.3716Z" fill="#DC0032"/>
<path fill-rule="evenodd" clip-rule="evenodd" d="M3.83594 23.0049L28.1588 51.3802V50.0013L6.1524 24.3838L3.83594 23.0049ZM33.7327 56.5327V57.9116L40.3926 65.7492L41.1889 65.3138L33.7327 56.5327Z" fill="#DB0032"/>
<path fill-rule="evenodd" clip-rule="evenodd" d="M1.95508 21.9164L28.1601 52.5413V51.1625L4.27154 23.2952L1.95508 21.9164ZM33.734 57.6213V59.0001L39.8148 66.1121L40.6111 65.6767L33.734 57.6213Z" fill="#DA0032"/>
<path fill-rule="evenodd" clip-rule="evenodd" d="M0.0722656 20.9004L28.1594 53.6299V52.2511L2.46112 22.2067L0.0722656 20.9004ZM33.7333 58.7099V60.1612L39.1626 66.475L39.9589 66.0395L33.7333 58.7099Z" fill="#D90032"/>
<path fill-rule="evenodd" clip-rule="evenodd" d="M0 20.8278V21.8438L28.1595 54.7185V53.3396L0.579116 21.1181L0 20.8278ZM33.7335 59.871V60.7418C33.7335 60.8869 33.6611 61.0321 33.5887 61.1047L38.5112 66.8378L39.3075 66.4024L33.7335 59.871Z" fill="#D80032"/>
<path fill-rule="evenodd" clip-rule="evenodd" d="M0 21.5535V23.005L28.1595 55.8796V54.5008L0 21.5535ZM33.6611 60.9595C33.5887 61.2498 33.3715 61.5401 33.1543 61.6127L33.0819 61.6852L37.8597 67.2007L38.656 66.7652L33.6611 60.9595Z" fill="#D70032"/>
<path fill-rule="evenodd" clip-rule="evenodd" d="M0 22.7147V24.0935L28.1595 56.9682V55.5893L0 22.7147ZM33.2267 61.5401C33.2267 61.6127 33.2267 61.6127 33.1543 61.6127L32.4305 62.0481L37.2082 67.5635L38.0045 67.1281L33.2267 61.5401Z" fill="#D60032"/>
<path fill-rule="evenodd" clip-rule="evenodd" d="M0 23.8032V25.1821L28.1595 58.0567V56.6779L0 23.8032ZM32.6476 61.9029L31.779 62.4109L36.6291 67.9989L37.4253 67.4909L32.6476 61.9029Z" fill="#D50032"/>
<path fill-rule="evenodd" clip-rule="evenodd" d="M0 24.9644V26.3432L28.1595 59.2178V57.8391L0 24.9644ZM31.9962 62.2658L31.4895 62.5561C31.3447 62.6287 31.1999 62.6287 31.0551 62.6287L35.9775 68.3618L36.7738 67.8538L31.9962 62.2658Z" fill="#D40032"/>
<path fill-rule="evenodd" clip-rule="evenodd" d="M0 26.0529V27.4318L28.1595 60.3064V58.9275L0 26.0529ZM29.7521 62.2658L35.326 68.7247L36.1223 68.2167L31.2723 62.6287C31.1999 62.6287 31.0551 62.7012 30.9827 62.7012H30.9103C30.6932 62.7012 30.5484 62.6287 30.4036 62.5561L29.7521 62.2658Z" fill="#D30032"/>
<path fill-rule="evenodd" clip-rule="evenodd" d="M0 27.1415V28.5929L34.6745 69.0875L35.4708 68.5795L30.2588 62.4835L28.6662 61.6126C28.3767 61.4675 28.1595 61.1046 28.1595 60.7418V60.0161L0 27.1415Z" fill="#D20032"/>
<path fill-rule="evenodd" clip-rule="evenodd" d="M0 28.3027V29.6815L34.023 69.4504L34.8193 69.015L0 28.3027Z" fill="#D10032"/>
<path fill-rule="evenodd" clip-rule="evenodd" d="M0 29.3912V30.7701L33.3715 69.8132L34.1678 69.3778L0 29.3912Z" fill="#D00032"/>
<path fill-rule="evenodd" clip-rule="evenodd" d="M0 30.4798V31.9312L32.7924 70.1761L33.5887 69.7407L0 30.4798Z" fill="#CF0032"/>
<path fill-rule="evenodd" clip-rule="evenodd" d="M0 31.641V33.0197L32.141 70.539L32.9372 70.1035L0 31.641Z" fill="#CE0032"/>
<path fill-rule="evenodd" clip-rule="evenodd" d="M0 32.7294V34.1083L31.4171 70.8292C31.6342 70.7567 31.8514 70.6841 32.0686 70.6115L32.2857 70.4664L0 32.7294Z" fill="#CD0032"/>
<path fill-rule="evenodd" clip-rule="evenodd" d="M0 33.818V35.2694L30.476 70.8292C30.6208 70.8292 30.7656 70.8292 30.9103 70.8292C31.1275 70.8292 31.3447 70.8292 31.5619 70.7566L0 33.818Z" fill="#CC0032"/>
<path fill-rule="evenodd" clip-rule="evenodd" d="M0 34.9791V36.358L28.811 70.0309L29.8245 70.6115C30.0417 70.7566 30.4036 70.8292 30.6932 70.8292L0 34.9791Z" fill="#CB0032"/>
<path fill-rule="evenodd" clip-rule="evenodd" d="M0 36.0677V37.4466L26.9289 68.9424L29.3178 70.3212L0 36.0677Z" fill="#CA0032"/>
<path fill-rule="evenodd" clip-rule="evenodd" d="M0 37.2289V38.6077L25.0467 67.8538L27.4356 69.2327L0 37.2289Z" fill="#C90032"/>
<path fill-rule="evenodd" clip-rule="evenodd" d="M0 38.3174V39.6963L23.1646 66.7652L25.4811 68.1441L0 38.3174Z" fill="#C80033"/>
<path fill-rule="evenodd" clip-rule="evenodd" d="M0 39.406V40.7849L21.2825 65.6767L23.5989 67.0555L0 39.406Z" fill="#C70033"/>
<path fill-rule="evenodd" clip-rule="evenodd" d="M0 40.5671V41.946L19.328 64.5155L21.7168 65.8944L0 40.5671Z" fill="#C60033"/>
<path fill-rule="evenodd" clip-rule="evenodd" d="M0 41.6557V43.0346L17.4459 63.4269L19.8347 64.8058L0 41.6557Z" fill="#C50033"/>
<path fill-rule="evenodd" clip-rule="evenodd" d="M0 42.7443V44.1231L15.5638 62.3384L17.9526 63.7172L0 42.7443Z" fill="#C40033"/>
<path fill-rule="evenodd" clip-rule="evenodd" d="M0 43.9054V45.2843L13.6816 61.2498L16.0705 62.6287L0 43.9054Z" fill="#C30033"/>
<path fill-rule="evenodd" clip-rule="evenodd" d="M0 44.994V46.3727L11.7995 60.1612L14.1883 61.5401L0 44.994Z" fill="#C20033"/>
<path fill-rule="evenodd" clip-rule="evenodd" d="M0 46.0825V47.5339L9.91733 59.0727L12.2338 60.4515L0 46.0825Z" fill="#C10033"/>
<path fill-rule="evenodd" clip-rule="evenodd" d="M0 47.2436V48.6225L7.96284 57.9842L10.3517 59.363L0 47.2436Z" fill="#C00033"/>
<path fill-rule="evenodd" clip-rule="evenodd" d="M0 48.3322V49.711L6.08071 56.8956L8.46957 58.2019L0 48.3322Z" fill="#BF0033"/>
<path fill-rule="evenodd" clip-rule="evenodd" d="M0 49.4207V50.8722L4.19859 55.7345L6.58744 57.1133L0 49.4207Z" fill="#BE0033"/>
<path fill-rule="evenodd" clip-rule="evenodd" d="M0 50.5819V51.9608L2.31646 54.6459L4.70531 56.0248L0 50.5819Z" fill="#BD0033"/>
<path fill-rule="evenodd" clip-rule="evenodd" d="M0 51.6705V52.0333C0 52.759 0.506726 53.6299 1.08584 53.9928L2.82319 54.9362L0 51.6705Z" fill="#BC0033"/>
<path fill-rule="evenodd" clip-rule="evenodd" d="M0.433594 53.3396C0.578373 53.4847 0.650762 53.6299 0.795541 53.7025L0.433594 53.3396Z" fill="#BB0033"/>
</svg>
